<?xml version="1.0" standalone="no"?>
<svg xmlns="http://www.w3.org/2000/svg" version="1.1">
<path stroke="black" stroke-width="1" fill="none" fill-rule="nonzero" transform="matrix(1 0 0 -1 0 746.877)" d="M 700.389 720.366 L 594.487 734.864 C 477.492 750.88 358.861 750.881 241.866 734.867 L 135.933 720.367 C 123.55 718.672 114.321 708.092 114.324 695.593 L 114.333 648.333 L 150.02 605.513 C 151.233 604.058 153.165 603.413 155.009 603.848 L 188.609 611.773 C 339.583 647.383 496.771 647.383 647.745 611.773 L 681.344 603.848 C 683.188 603.413 685.12 604.058 686.333 605.514 L 722.007 648.333 L 721.998 695.602 C 721.996 708.097 712.769 718.671 700.389 720.366 Z M 722.003 648.374 C 722.001 660.869 712.773 671.444 700.394 673.138 M 135.938 673.139 C 123.555 671.444 114.326 660.864 114.328 648.365 M 241.871 687.639 L 135.938 673.139 M 594.492 687.636 C 477.497 703.652 358.866 703.653 241.871 687.639 M 700.394 673.138 L 594.492 687.636 M 721.998 695.602 C 721.997 708.097 712.768 718.672 700.39 720.366 L 594.487 734.864 C 477.492 750.88 358.862 750.881 241.867 734.867 L 135.934 720.367 C 123.55 718.672 114.322 708.092 114.325 695.593 L 114.334 648.334 L 150.02 605.513 C 151.234 604.058 153.165 603.413 155.01 603.848 L 188.609 611.773 C 189.689 612.028 190.771 612.262 191.852 612.513 L 217.673 581.485 C 218.38 580.635 219.641 580.52 220.49 581.227 L 255.893 610.688 C 256.741 611.395 256.858 612.656 256.151 613.505 L 247.577 623.808 C 360.691 643.393 476.34 643.347 589.443 623.688 L 580.969 613.505 C 580.263 612.656 580.378 611.395 581.227 610.688 L 616.63 581.227 C 617.479 580.52 618.74 580.635 619.448 581.485 L 645.148 612.368 C 646.013 612.167 646.88 611.977 647.745 611.773 L 681.344 603.848 C 683.188 603.413 685.12 604.058 686.333 605.514 L 722.008 648.334 L 721.998 695.602 Z M 630.854 595.192 L 645.146 612.366 C 646.012 612.164 646.88 611.977 647.745 611.773 L 681.344 603.848 C 683.188 603.413 685.12 604.058 686.333 605.514 L 722.007 648.333 L 721.998 695.602 C 721.996 708.097 712.768 718.671 700.389 720.366 L 594.487 734.864 C 477.492 750.88 358.861 750.881 241.866 734.867 L 135.933 720.367 C 123.55 718.672 114.321 708.092 114.324 695.593 L 114.333 648.333 L 150.02 605.513 C 151.233 604.058 153.165 603.413 155.009 603.848 L 188.609 611.773 C 189.688 612.028 190.771 612.262 191.851 612.513 L 205.944 595.578 C 158.751 553.457 129.027 492.175 129.027 423.941 L 129.027 129.226 C 129.027 90.566 160.368 59.226 199.027 59.226 L 637.335 59.226 C 675.995 59.226 707.335 90.566 707.335 129.226 L 707.335 423.941 C 707.335 491.966 677.795 553.083 630.854 595.192 Z M 630.854 595.192 " />
</svg>
