<?xml version="1.0" standalone="no"?>
<svg xmlns="http://www.w3.org/2000/svg" version="1.1">
<path stroke="black" stroke-width="1" fill="none" fill-rule="nonzero" transform="matrix(1 0 0 -1 0 605)" d="M 585.328 457.672 L 207.672 457.672 L 207.672 591 L 585.328 591 Z M 157.922 420 L 635.083 420 L 635.083 457.672 L 157.922 457.672 Z M 635.083 457.672 L 623 457.672 L 623 594.847 L 585.328 594.847 L 585.328 457.672 L 207.672 457.672 L 207.672 594.847 L 170 594.847 L 170 457.672 L 157.922 457.672 L 157.922 420 L 170 420 L 170 413.068 L 207.672 413.068 L 207.672 420 L 585.328 420 L 585.328 413.068 L 623 413.068 L 623 420 L 635.083 420 L 635.083 457.672 Z M 622.992 414.175 L 653.667 383.5 L 137 383.5 L 170 416.5 L 170 413.068 L 207.672 413.068 L 207.672 420 L 585.328 420 L 585.328 413.068 L 623 413.068 L 622.992 414.175 Z M 137 383.5 L 137 591 L 170 591 L 170 457.672 L 157.922 457.672 L 157.922 420 L 170 420 L 170 416.5 L 137 383.5 Z M 653.667 383.5 L 653.667 591 L 623 591 L 623 457.672 L 635.083 457.672 L 635.083 420 L 623.005 420 L 622.992 414.175 L 653.667 383.5 Z M 150.667 591 L 150.667 605 L 98.6667 605 L 98.6667 331.667 L 693.5 331.667 L 693.5 605 L 641.5 605 L 641.5 591 L 653.667 591 L 653.667 383.5 L 137 383.5 L 137 591 L 150.667 591 Z M 618.594 594.969 L 614.125 594.969 L 614.125 599.438 L 618.594 599.438 Z M 179.719 594.847 L 175.25 594.847 L 175.25 599.316 L 179.719 599.316 Z M 693.5 588.75 L 739.667 588.75 L 739.667 271 L 52.5 271 L 52.5 588 L 98.667 588 L 98.667 331.667 L 693.5 331.667 L 693.5 588.75 Z M 693.5 331.667 L 641.458 383.709 M 98.6667 331.667 L 150.563 383.563 " />
</svg>
