<?xml version="1.0" standalone="no"?>
<svg xmlns="http://www.w3.org/2000/svg" version="1.1">
<path stroke="black" stroke-width="1" fill="none" fill-rule="nonzero" transform="matrix(1 0 0 -1 0 146.361)" d="M 19.6481 137.498 L 19.6481 26.0729 M 158.827 26.0729 L 158.827 137.498 M 172.981 7.8407 L 172.981 146.361 M 5.4943 146.361 L 5.4943 7.8407 M 5.4941 0.7492 L 172.981 0.7492 L 177.699 5.814 L 177.699 143.829 L 175.34 146.361 L 3.1351 146.361 L 0.7761 143.829 L 0.7761 5.814 L 5.4941 0.7492 M 25.5454 19.7421 L 152.93 19.7421 M 7.3816 5.814 L 171.094 5.814 M 19.6482 26.0714 L 19.6766 25.4512 L 19.7615 24.8369 L 19.9022 24.2346 L 20.0971 23.6499 L 20.3445 23.0886 L 20.6421 22.556 L 20.9868 22.0572 L 21.3754 21.5971 L 21.8042 21.1801 L 22.269 20.8102 L 22.7654 20.491 L 23.2886 20.2255 L 23.8334 20.0163 L 24.3948 19.8654 L 24.9672 19.7743 L 25.5453 19.7438 M 152.93 19.7438 L 153.508 19.7743 L 154.08 19.8654 L 154.642 20.0163 L 155.187 20.2254 L 155.71 20.4909 L 156.206 20.8101 L 156.671 21.18 L 157.1 21.597 L 157.489 22.0571 L 157.833 22.5558 L 158.131 23.0884 L 158.378 23.6497 L 158.573 24.2343 L 158.714 24.8366 L 158.799 25.4508 M 152.93 108.376 L 25.5454 108.376 M 170.622 137.498 L 7.8536 137.498 M 170.622 140.031 L 7.8536 140.031 M 25.5457 108.374 L 24.9676 108.343 L 24.3951 108.252 L 23.8337 108.101 L 23.2888 107.892 L 22.7656 107.627 L 22.2691 107.308 L 21.8043 106.938 L 21.3754 106.521 L 20.9868 106.061 L 20.642 105.562 L 20.3444 105.029 L 20.097 104.468 L 19.902 103.883 L 19.7614 103.281 L 19.6764 102.667 M 5.4941 142.565 L 5.5055 142.317 L 5.5394 142.07 L 5.5957 141.829 L 5.6737 141.594 L 5.7727 141.369 L 5.8917 141.156 L 6.0297 140.955 L 6.1852 140.771 L 6.3567 140.604 L 6.5427 140.455 L 6.7413 140.327 L 6.9506 140.221 L 7.1686 140.137 L 7.3932 140.076 L 7.6223 140.04 L 7.8536 140.028 M 5.4941 140.033 L 5.5055 139.784 L 5.5394 139.538 L 5.5957 139.296 L 5.6737 139.062 L 5.7727 138.837 L 5.8917 138.623 L 6.0297 138.423 L 6.1852 138.239 L 6.3567 138.071 L 6.5427 137.923 L 6.7413 137.795 L 6.9506 137.688 L 7.1686 137.605 L 7.3932 137.544 L 7.6223 137.508 L 7.8536 137.495 M 95.1354 90.6489 L 95.107 91.2696 L 95.022 91.8844 L 94.8814 92.4873 L 94.6864 93.0724 L 94.439 93.6343 L 94.1414 94.1674 L 93.7966 94.6666 L 93.408 95.127 L 92.9791 95.5444 L 92.5143 95.9147 L 92.0178 96.2342 L 91.4946 96.4999 L 90.9497 96.7093 L 90.3883 96.8603 L 89.8158 96.9515 L 89.2377 96.982 L 88.6596 96.9515 L 88.0871 96.8603 L 87.5257 96.7093 L 86.9808 96.4999 L 86.4576 96.2342 L 85.9612 95.9147 L 85.4963 95.5444 L 85.0674 95.127 L 84.6788 94.6666 L 84.334 94.1674 L 84.0364 93.6343 L 83.789 93.0724 L 83.594 92.4873 L 83.4534 91.8844 L 83.3685 91.2696 L 83.3401 90.6489 L 83.3685 90.0281 L 83.4534 89.4133 L 83.594 88.8105 L 83.789 88.2253 L 84.0364 87.6635 L 84.334 87.1304 L 84.6788 86.6312 L 85.0674 86.1707 L 85.4963 85.7533 L 85.9612 85.3831 L 86.4576 85.0636 L 86.9808 84.7978 L 87.5257 84.5885 L 88.0871 84.4374 L 88.6596 84.3463 L 89.2377 84.3158 L 89.8158 84.3463 L 90.3883 84.4374 L 90.9497 84.5885 L 91.4946 84.7978 L 92.0178 85.0636 L 92.5143 85.3831 L 92.9791 85.7533 L 93.408 86.1707 L 93.7966 86.6312 L 94.1414 87.1304 L 94.439 87.6635 L 94.6864 88.2253 L 94.8814 88.8105 L 95.022 89.4133 L 95.107 90.0281 L 95.1354 90.6489 L 95.1354 90.6489 M 158.827 102.042 L 158.799 102.663 L 158.714 103.278 L 158.573 103.882 L 158.378 104.467 L 158.131 105.029 L 157.833 105.562 L 157.489 106.062 L 157.1 106.522 L 156.671 106.94 L 156.206 107.31 L 155.71 107.63 L 155.187 107.896 L 154.642 108.105 L 154.08 108.256 L 153.508 108.348 M 170.622 140.031 L 170.854 140.043 L 171.082 140.08 L 171.307 140.14 L 171.525 140.224 L 171.734 140.33 L 171.933 140.458 L 172.119 140.606 L 172.29 140.772 L 172.445 140.956 L 172.583 141.156 L 172.702 141.369 L 172.801 141.593 L 172.879 141.827 L 172.936 142.068 L 172.969 142.314 M 170.622 137.499 L 170.854 137.511 L 171.082 137.547 L 171.307 137.608 L 171.525 137.691 L 171.734 137.798 L 171.933 137.925 L 172.119 138.073 L 172.29 138.24 L 172.445 138.424 L 172.583 138.624 L 172.702 138.837 L 172.801 139.061 L 172.879 139.295 L 172.936 139.536 L 172.969 139.781 M 5.494 7.8409 L 5.5031 7.6421 L 5.5303 7.4453 L 5.5753 7.2522 L 5.6377 7.0648 L 5.7169 6.8849 L 5.8121 6.7142 L 5.9225 6.5544 L 6.0469 6.4069 L 6.1841 6.2733 L 6.3329 6.1547 L 6.4918 6.0524 L 6.6593 5.9673 L 6.8337 5.9003 L 7.0134 5.8519 L 7.1966 5.8227 L 7.3816 5.813 M 171.094 5.8134 L 171.279 5.8232 L 171.462 5.8523 L 171.642 5.9007 L 171.816 5.9677 L 171.984 6.0528 L 172.142 6.155 L 172.291 6.2735 L 172.428 6.4071 L 172.553 6.5545 L 172.663 6.7143 L 172.758 6.885 L 172.837 7.0648 L 172.9 7.2521 L 172.945 7.4451 L 172.972 7.6418 M 93.366 123.524 L 93.3462 123.959 L 93.2867 124.389 L 93.1883 124.811 L 93.0518 125.221 L 92.8786 125.614 L 92.6703 125.987 L 92.4289 126.336 L 92.1569 126.659 L 91.8567 126.951 L 91.5313 127.21 L 91.1838 127.434 L 90.8176 127.62 L 90.4361 127.766 L 90.0431 127.872 L 89.6424 127.936 L 89.2377 127.957 L 88.8331 127.936 L 88.4323 127.872 L 88.0393 127.766 L 87.6579 127.62 L 87.2916 127.434 L 86.9441 127.21 L 86.6187 126.951 L 86.3185 126.659 L 86.0465 126.336 L 85.8051 125.987 L 85.5968 125.614 L 85.4236 125.221 L 85.2871 124.811 L 85.1887 124.389 L 85.1293 123.959 L 85.1094 123.524 L 85.1293 123.09 L 85.1887 122.66 L 85.2871 122.238 L 85.4236 121.828 L 85.5968 121.435 L 85.8051 121.062 L 86.0465 120.712 L 86.3185 120.39 L 86.6187 120.098 L 86.9441 119.839 L 87.2916 119.615 L 87.6579 119.429 L 88.0393 119.283 L 88.4323 119.177 L 88.8331 119.113 L 89.2377 119.092 L 89.6424 119.113 L 90.0431 119.177 L 90.4361 119.283 L 90.8176 119.429 L 91.1838 119.615 L 91.5313 119.839 L 91.8567 120.098 L 92.1569 120.39 L 92.4289 120.712 L 92.6703 121.062 L 92.8786 121.435 L 93.0518 121.828 L 93.1883 122.238 L 93.2867 122.66 L 93.3462 123.09 L 93.366 123.524 L 93.366 123.524 " />
</svg>
