<?xml version="1.0" standalone="no"?>
<svg xmlns="http://www.w3.org/2000/svg" version="1.1">
<path stroke="black" stroke-width="1" fill="none" fill-rule="nonzero" transform="matrix(1 0 0 -1 0 81.4118)" d="M 18.4666 34.8762 L 18.6448 32.3471 L 19.1693 29.8429 L 20.0351 27.3877 L 21.2339 25.0053 L 22.7541 22.7184 L 24.5811 20.5493 L 26.6972 18.5187 L 29.0822 16.6462 L 31.713 14.9498 L 34.5643 13.4459 L 37.6086 12.149 L 40.8167 11.0715 L 44.1575 10.2237 L 47.599 9.6141 L 51.108 9.2482 L 54.6507 9.1298 L 58.1931 9.2599 L 61.7008 9.6372 L 65.1403 10.2582 L 68.4784 11.1168 L 71.6828 12.2048 L 74.7229 13.5118 L 77.5692 15.025 L 80.1944 16.73 L 82.5732 18.6104 L 84.6827 20.6479 L 86.5026 22.8231 L 88.0152 25.1149 L 89.2062 27.5012 L 90.064 29.9592 L 90.5803 32.4651 L 90.7502 34.9948 L 90.572 37.5239 L 90.0474 40.0281 L 89.1816 42.4832 L 87.9829 44.8657 L 86.4626 47.1525 L 84.6356 49.3216 L 82.5195 51.3523 L 80.1345 53.2248 L 77.5038 54.9212 L 74.6525 56.4251 L 71.6082 57.722 L 68.4001 58.7995 L 65.0593 59.6472 L 61.6178 60.2569 L 58.1088 60.6227 L 54.566 60.7412 L 51.0237 60.6111 L 47.5159 60.2337 L 44.0764 59.6128 L 40.7384 58.7541 L 37.5339 57.6661 L 34.4939 56.3592 L 31.6476 54.8459 L 29.0223 53.1409 L 26.6435 51.2606 L 24.534 49.223 L 22.7142 47.0479 L 21.2015 44.7561 L 20.0105 42.3697 L 19.1528 39.9117 L 18.6364 37.4059 L 18.4666 34.8762 L 18.4666 34.8762 M 0.7502 41.0184 L 1.0095 37.0591 L 1.7851 33.138 L 3.0693 29.2928 L 4.8499 25.5605 L 7.1097 21.9771 L 9.8269 18.577 L 12.9755 15.3931 L 16.5249 12.456 L 20.4411 9.7939 L 24.6864 7.4325 L 29.2198 5.3946 L 33.9977 3.6997 L 38.9742 2.3643 L 44.1012 1.4011 L 49.3293 0.8195 L 54.6084 0.625 L 59.8874 0.8195 L 65.1156 1.4011 L 70.2425 2.3643 L 75.219 3.6997 L 79.9969 5.3946 L 84.5303 7.4325 L 88.7757 9.7939 L 92.6918 12.456 L 96.2413 15.3931 L 99.3898 18.577 L 102.107 21.9771 L 104.367 25.5605 L 106.147 29.2928 L 107.432 33.138 L 108.207 37.0591 L 108.466 41.0184 L 108.207 44.9777 L 107.432 48.8987 L 106.147 52.744 L 104.367 56.4763 L 102.107 60.0597 L 99.3898 63.4598 L 96.2413 66.6437 L 92.6918 69.5808 L 88.7757 72.2429 L 84.5303 74.6043 L 79.9969 76.6422 L 75.219 78.337 L 70.2425 79.6725 L 65.1156 80.6356 L 59.8874 81.2173 L 54.6084 81.4118 L 49.3293 81.2173 L 44.1012 80.6356 L 38.9742 79.6725 L 33.9977 78.337 L 29.2198 76.6422 L 24.6864 74.6043 L 20.4411 72.2429 L 16.5249 69.5808 L 12.9755 66.6437 L 9.8269 63.4598 L 7.1097 60.0597 L 4.8499 56.4763 L 3.0693 52.744 L 1.7851 48.8987 L 1.0095 44.9777 L 0.7502 41.0184 L 0.7502 41.0184 M 58.1518 45.979 L 58.1347 46.3264 L 58.0837 46.6705 L 57.9992 47.0078 L 57.8821 47.3353 L 57.7334 47.6497 L 57.5546 47.9481 L 57.3475 48.2274 L 57.1139 48.4851 L 56.8563 48.7187 L 56.577 48.9259 L 56.2787 49.1047 L 55.9644 49.2534 L 55.637 49.3706 L 55.2997 49.4551 L 54.9557 49.5061 L 54.6084 49.5232 L 54.261 49.5061 L 53.9171 49.4551 L 53.5798 49.3706 L 53.2523 49.2534 L 52.938 49.1047 L 52.6397 48.9259 L 52.3604 48.7187 L 52.1028 48.4851 L 51.8693 48.2274 L 51.6621 47.9481 L 51.4833 47.6497 L 51.3347 47.3353 L 51.2175 47.0078 L 51.133 46.6705 L 51.082 46.3264 L 51.0649 45.979 L 51.082 45.6316 L 51.133 45.2876 L 51.2175 44.9502 L 51.3347 44.6227 L 51.4833 44.3083 L 51.6621 44.01 L 51.8693 43.7306 L 52.1028 43.4729 L 52.3604 43.2394 L 52.6397 43.0322 L 52.938 42.8534 L 53.2523 42.7047 L 53.5798 42.5875 L 53.9171 42.503 L 54.261 42.4519 L 54.6084 42.4349 L 54.9557 42.4519 L 55.2997 42.503 L 55.637 42.5875 L 55.9644 42.7047 L 56.2787 42.8534 L 56.577 43.0322 L 56.8563 43.2394 L 57.1139 43.4729 L 57.3475 43.7306 L 57.5546 44.01 L 57.7334 44.3083 L 57.8821 44.6227 L 57.9992 44.9502 L 58.0837 45.2876 L 58.1347 45.6316 L 58.1518 45.979 L 58.1518 45.979 M 57.0758 69.3649 L 57.0638 69.6079 L 57.0281 69.8485 L 56.969 70.0845 L 56.887 70.3135 L 56.7829 70.5335 L 56.6578 70.7421 L 56.5128 70.9375 L 56.3493 71.1178 L 56.1689 71.2812 L 55.9734 71.4261 L 55.7647 71.5512 L 55.5446 71.6552 L 55.3154 71.7371 L 55.0793 71.7963 L 54.8386 71.832 L 54.5954 71.8439 L 54.3523 71.832 L 54.1116 71.7963 L 53.8754 71.7371 L 53.6463 71.6552 L 53.4262 71.5512 L 53.2174 71.4261 L 53.0219 71.2812 L 52.8416 71.1178 L 52.6781 70.9375 L 52.5331 70.7421 L 52.408 70.5335 L 52.3039 70.3135 L 52.2219 70.0845 L 52.1628 69.8485 L 52.1271 69.6079 L 52.1151 69.3649 L 52.1271 69.1219 L 52.1628 68.8812 L 52.2219 68.6452 L 52.3039 68.4162 L 52.408 68.1963 L 52.5331 67.9876 L 52.6781 67.7922 L 52.8416 67.6119 L 53.0219 67.4486 L 53.2174 67.3036 L 53.4262 67.1786 L 53.6463 67.0745 L 53.8754 66.9926 L 54.1116 66.9335 L 54.3523 66.8978 L 54.5954 66.8858 L 54.8386 66.8978 L 55.0793 66.9335 L 55.3154 66.9926 L 55.5446 67.0745 L 55.7647 67.1786 L 55.9734 67.3036 L 56.1689 67.4486 L 56.3493 67.6119 L 56.5128 67.7922 L 56.6578 67.9876 L 56.7829 68.1963 L 56.887 68.4162 L 56.969 68.6452 L 57.0281 68.8812 L 57.0638 69.1219 L 57.0758 69.3649 L 57.0758 69.3649 " />
</svg>
