<?xml version="1.0" standalone="no"?>
<svg xmlns="http://www.w3.org/2000/svg" version="1.1">
<path stroke="black" stroke-width="1" fill="none" fill-rule="nonzero" transform="matrix(1 0 0 -1 0 512)" d="M 237.463 408.351 L 263.223 382.438 M 102.221 272.311 L 127.983 246.398 M 153.741 220.487 L 127.982 246.398 M 153.741 147.196 L 153.741 110.55 M 345 147.196 L 345 183.842 M 345 183.843 L 345 220.489 M 153.741 183.843 L 153.741 147.197 M 153.741 220.487 L 153.741 183.842 M 127.982 246.398 L 263.222 382.438 M 153.741 220.487 L 288.982 356.526 M 263.223 382.438 L 288.983 356.526 M 134.422 512 L -0.819122 375.961 M 134.422 512 L -0.819122 375.961 M 24.9404 350.048 L 160.181 486.088 M 24.9404 350.048 L -0.819601 375.962 M 24.9404 350.048 L -0.819601 375.962 M 134.422 512 L 160.182 486.087 M 50.7007 324.137 L 185.942 460.176 M 50.7007 324.137 L 24.9407 350.048 M 160.182 486.087 L 185.942 460.175 M 76.4619 298.225 L 211.701 434.263 M 76.4619 298.225 L 50.7009 324.137 M 185.941 460.175 L 211.701 434.262 M 102.221 272.311 L 237.463 408.351 M 102.221 272.311 L 76.4617 298.225 M 211.701 434.263 L 237.463 408.351 M 345 110.551 L 345 147.197 M 153.741 110.551 L 153.741 73.9058 M 345 73.9063 L 345 110.552 M 153.741 73.9063 L 153.741 37.2603 M 345 37.2598 L 345 73.9058 M 153.741 37.2598 L 153.741 0.614799 M 345 0.6152 L 345 37.2602 M 153.741 183.843 L 345 183.843 M 345 220.487 L 153.741 220.487 M 153.741 147.196 L 345 147.196 M 153.741 110.551 L 345 110.551 M 153.741 73.9063 L 345 73.9063 M 153.741 37.2598 L 345 37.2598 M 153.741 0.6152 L 345 0.6152 M 345 300.177 L 288.982 356.526 M 345 220.487 L 345 300.177 M 244 19 L 244 256 M 244 256 L 100.5 399.5 M 100.5 399.5 L 100.5 389.5 M 100.5 399.5 L 110.5 399.5 M 244 19 L 244 256 M 244 256 L 100.5 399.5 M 100.5 399.5 L 100.5 389.5 M 100.5 399.5 L 110.5 399.5 " />
</svg>
