<?xml version="1.0" standalone="no"?>
<svg xmlns="http://www.w3.org/2000/svg" version="1.1">
<path stroke="black" stroke-width="1" fill="none" fill-rule="nonzero" transform="matrix(1 0 0 -1 0 50.418)" d="M 1.00146 33.7368 C 1.00146 33.7368 0 30.6558 0 30.6558 M 2.86768 33.1304 C 2.86768 33.1304 1.8667 30.0493 1.8667 30.0493 M 6.1333 32.0693 C 6.1333 32.0693 1.00146 33.7368 1.00146 33.7368 M 0 30.6558 C 0 30.6558 6.2124 28.6372 6.2124 28.6372 M 50.1602 33.7368 C 50.1602 33.7368 51.1611 30.6558 51.1611 30.6558 M 48.293 33.1304 C 48.293 33.1304 49.2949 30.0493 49.2949 30.0493 M 45.0283 32.0693 C 45.0283 32.0693 50.1602 33.7368 50.1602 33.7368 M 51.1611 30.6558 C 51.1611 30.6558 44.9482 28.6372 44.9482 28.6372 M 23.9604 50.418 C 23.9604 50.418 27.2012 50.418 27.2012 50.418 M 23.9604 48.4556 C 23.9604 48.4556 27.2012 48.4556 27.2012 48.4556 M 23.9604 43.0884 C 23.9604 43.0884 23.9604 50.418 23.9604 50.418 M 27.2012 50.418 C 27.2012 50.418 27.2012 43.0884 27.2012 43.0884 M 6.2124 19.0801 C 6.2124 19.0801 6.2124 4.67969 6.2124 4.67969 M 44.9482 4.67969 C 44.9482 4.67969 44.9482 19.0801 44.9482 19.0801 M 44.9336 30.9307 C 44.9336 30.9307 44.9434 31.042 44.9434 31.042 M 44.9482 19.0801 C 44.9482 19.0801 44.9482 30.9307 44.9482 30.9307 M 44.9434 31.042 C 44.9434 31.042 45.6396 38.9878 45.6396 38.9878 M 6.2124 31.042 C 6.2124 31.042 6.2124 19.0801 6.2124 19.0801 M 5.56396 39.0044 C 5.56396 39.0044 6.21777 31.042 6.21777 31.042 M 44.9336 30.9307 C 32.6943 36.7554 18.4902 36.7959 6.21777 31.042 M 45.1728 33.6616 C 32.7353 39.3408 18.4487 39.3569 5.99902 33.7056 M 45.29 35.4233 C 32.8027 41.2793 18.3584 41.2793 5.87109 35.4233 M 45.6396 38.9878 C 32.8477 44.4844 18.3603 44.4902 5.56396 39.0044 M 6.2124 4.67969 C 18.3706 -1.56055 32.79 -1.56055 44.9482 4.67969 " />
</svg>
