<?xml version="1.0" standalone="no"?>
<svg xmlns="http://www.w3.org/2000/svg" version="1.1">
<path stroke="black" stroke-width="1" fill="none" fill-rule="nonzero" transform="matrix(1 0 0 -1 0 360.335)" d="M 43.6228 26.8226 L 300.555 26.8226 L 300.555 271.818 L 310.154 268.093 L 324.842 294.415 L 330.325 324.319 L 13.8534 324.319 L 19.3361 294.415 L 34.0241 268.093 L 43.6228 271.818 L 43.6228 26.8226 M 67.8006 282.805 L 171.99 300.526 L 273.48 283.157 L 67.8006 282.805 L 67.8006 282.805 M 320.993 87.2823 L 317.166 91.7622 L 317.166 233.74 L 320.993 238.22 L 336.414 240.656 L 341.658 236.177 L 341.658 89.325 L 336.414 84.8451 L 320.993 87.2823 M 23.1845 87.2823 L 27.0119 91.7622 L 27.0119 233.74 L 23.1845 238.22 L 7.764 240.656 L 2.5204 236.177 L 2.5204 89.325 L 7.764 84.8451 L 23.1845 87.2823 M 310.154 268.093 L 315.09 298.168 M 286.042 352.398 L 286.042 343.788 M 301.916 352.398 L 301.916 337.665 M 333.853 12.3439 L 337.349 32.7693 M 324.648 13.0809 L 322.366 27.2405 M 321.475 42.9966 L 301.916 42.9966 M 329.412 27.2405 L 300.555 27.2405 M 321.475 32.7693 L 321.475 87.2063 M 337.349 32.7692 L 337.349 84.6978 M 34.0241 268.093 L 29.088 298.168 M 58.1362 352.398 L 58.1362 343.788 M 42.2622 352.398 L 42.2622 337.665 M 10.3249 12.3439 L 6.8291 32.7693 M 19.53 13.0809 L 21.812 27.2405 M 22.7032 42.9966 L 42.2622 42.9966 M 14.7661 27.2405 L 43.6229 27.2405 M 22.7031 32.7693 L 22.7031 87.2063 M 6.8291 32.7692 L 6.8291 84.6978 M 315.09 298.168 L 285.095 312.019 L 253.777 322.543 L 221.503 329.616 L 188.654 333.154 L 155.615 333.117 L 122.774 329.505 L 90.5171 322.36 L 59.2225 311.766 M 300.714 272.164 L 287.227 277.983 M 301.916 352.398 L 301.878 353.176 L 301.763 353.946 L 301.574 354.702 L 301.311 355.435 L 300.978 356.139 L 300.578 356.807 L 300.114 357.433 L 299.591 358.01 L 299.014 358.533 L 298.388 358.997 L 297.72 359.397 L 297.016 359.73 L 296.283 359.993 L 295.527 360.182 L 294.757 360.296 L 293.979 360.335 L 293.201 360.296 L 292.43 360.182 L 291.675 359.993 L 290.941 359.73 L 290.237 359.397 L 289.569 358.997 L 288.944 358.533 L 288.366 358.01 L 287.843 357.433 L 287.379 356.807 L 286.979 356.139 L 286.646 355.435 L 286.384 354.702 L 286.194 353.946 L 286.08 353.176 M 324.648 13.0809 L 324.671 12.6213 L 324.74 12.1662 L 324.853 11.7202 L 325.01 11.2876 L 325.209 10.8727 L 325.448 10.4796 L 325.725 10.1121 L 326.037 9.774 L 326.381 9.4685 L 326.754 9.1987 L 327.152 8.9672 L 327.57 8.7763 L 328.006 8.6279 L 328.454 8.5234 L 328.911 8.464 L 329.371 8.4501 L 329.83 8.4819 L 330.283 8.5591 L 330.727 8.6809 L 331.156 8.8462 L 331.568 9.0533 L 331.956 9.3001 L 332.318 9.5842 L 332.65 9.9029 L 332.948 10.2529 L 333.211 10.6309 L 333.435 11.033 L 333.617 11.4553 L 333.757 11.8937 L 333.853 12.3438 M 323.695 19.4933 L 323.09 18.9123 L 322.546 18.2746 L 322.068 17.5864 L 321.659 16.8544 L 321.325 16.0858 L 321.068 15.288 L 320.89 14.4688 L 320.794 13.636 L 320.781 12.7979 L 320.85 11.9625 L 321.001 11.138 L 321.233 10.3324 L 321.542 9.5534 L 321.927 8.8088 L 322.384 8.1056 L 322.907 7.4508 L 323.492 6.8507 L 324.134 6.3111 L 324.825 5.8374 L 325.56 5.4339 L 326.331 5.1048 L 327.13 4.8532 L 327.951 4.6815 L 328.784 4.5914 L 329.622 4.5838 L 330.457 4.6588 L 331.281 4.8156 L 332.085 5.0527 L 332.861 5.3677 L 333.603 5.7578 L 334.303 6.219 L 334.955 6.7468 L 335.551 7.3362 L 336.086 7.9815 L 336.555 8.6762 L 336.953 9.4138 L 337.277 10.187 L 337.523 10.9883 L 337.689 11.8099 L 337.773 12.6439 L 337.775 13.4821 L 337.694 14.3165 L 337.531 15.1388 L 337.289 15.9411 L 336.968 16.7157 L 336.573 17.4549 L 336.107 18.1517 L 335.575 18.7991 M 70.698 283.157 L 56.9506 277.983 L 43.4636 272.164 M 58.1362 352.398 L 58.0979 353.176 L 57.9836 353.946 L 57.7944 354.702 L 57.532 355.435 L 57.199 356.139 L 56.7985 356.807 L 56.3345 357.433 L 55.8115 358.01 L 55.2343 358.533 L 54.6087 358.997 L 53.9407 359.397 L 53.2366 359.73 L 52.5032 359.993 L 51.7476 360.182 L 50.9772 360.296 L 50.1992 360.335 L 49.4212 360.296 L 48.6508 360.182 L 47.8952 359.993 L 47.1619 359.73 L 46.4578 359.397 L 45.7897 358.997 L 45.1641 358.533 L 44.587 358.01 L 44.0639 357.433 L 43.5999 356.807 L 43.1995 356.139 L 42.8664 355.435 L 42.604 354.702 L 42.4148 353.946 L 42.3005 353.176 M 10.3249 12.3438 L 10.4206 11.8937 L 10.5605 11.4553 L 10.7432 11.033 L 10.9669 10.6309 L 11.2295 10.2529 L 11.5282 9.9029 L 11.8602 9.5842 L 12.2221 9.3001 L 12.6105 9.0533 L 13.0215 8.8462 L 13.4509 8.6809 L 13.8947 8.5591 L 14.3483 8.4819 L 14.8074 8.4501 L 15.2674 8.464 L 15.7237 8.5234 L 16.1718 8.6279 L 16.6074 8.7763 L 17.0261 8.9672 L 17.4238 9.1987 L 17.7966 9.4685 L 18.1408 9.774 L 18.4529 10.1121 L 18.7299 10.4796 L 18.9691 10.8727 L 19.1682 11.2876 L 19.3251 11.7202 L 19.4382 12.1662 L 19.5066 12.6213 L 19.5294 13.0809 M 9.1967 19.391 L 8.6032 18.7991 L 8.0708 18.1517 L 7.6048 17.4549 L 7.2096 16.7157 L 6.8891 15.9411 L 6.6464 15.1388 L 6.4839 14.3165 L 6.4031 13.4821 L 6.4049 12.6439 L 6.4892 11.8099 L 6.6552 10.9883 L 6.9012 10.187 L 7.225 9.4138 L 7.6233 8.6762 L 8.0923 7.9815 L 8.6274 7.3362 L 9.2234 6.7468 L 9.8746 6.219 L 10.5745 5.7578 L 11.3165 5.3677 L 12.0932 5.0527 L 12.8972 4.8156 L 13.7207 4.6588 L 14.5555 4.5838 L 15.3937 4.5914 L 16.2271 4.6815 L 17.0476 4.8532 L 17.8472 5.1048 L 18.6181 5.4339 L 19.3529 5.8374 L 20.0443 6.3111 L 20.6858 6.8507 L 21.271 7.4508 L 21.7944 8.1056 L 22.2507 8.8088 L 22.6355 9.5534 L 22.9452 10.3324 L 23.1768 11.138 L 23.3278 11.9625 L 23.397 12.7979 L 23.3835 13.636 L 23.2877 14.4688 L 23.1103 15.288 L 22.8531 16.0858 L 22.5186 16.8544 L 22.1101 17.5864 L 21.6315 18.2746 L 21.0875 18.9123 L 20.4833 19.4933 M 29.0839 298.147 L 59.2313 311.788 M 273.52 283.155 L 287.716 277.795 " />
</svg>
