<?xml version="1.0" standalone="no"?>
<svg xmlns="http://www.w3.org/2000/svg" version="1.1">
<path stroke="black" stroke-width="1" fill="none" fill-rule="nonzero" transform="matrix(1 0 0 -1 0 674.833)" d="M 676.15 517.405 L 170.847 517.405 C 154.279 517.405 140.847 530.836 140.847 547.405 L 140.847 617.301 C 140.847 647.676 165.472 672.301 195.847 672.301 L 651.15 672.301 C 681.526 672.301 706.15 647.676 706.15 617.301 L 706.15 547.405 C 706.15 530.836 692.719 517.405 676.15 517.405 Z M 651.15 672.301 L 195.847 672.301 C 165.472 672.301 140.847 647.677 140.847 617.301 L 140.847 547.405 C 140.847 530.837 154.279 517.405 170.847 517.405 L 676.15 517.405 C 692.719 517.405 706.15 530.837 706.15 547.405 L 706.15 617.301 C 706.15 647.677 681.526 672.301 651.15 672.301 Z M 589.833 487.956 L 607 517.405 L 238.833 517.405 L 256 487.956 L 589.833 487.956 Z M 155.801 655 L 143 655 C 137.477 655 133 650.523 133 645 L 133 162 C 133 139.909 150.909 122 173 122 L 216 122 C 226.75 122 236.501 126.248 243.688 133.147 C 246.668 122.673 256.3 115 267.729 115 L 575.336 115 C 587.537 115 597.69 123.742 599.889 135.302 C 607.212 127.139 617.839 122 629.668 122 L 672.668 122 C 694.76 122 712.668 139.909 712.668 162 L 712.668 645 C 712.668 650.523 708.191 655 702.668 655 L 691.281 655 M 607 517.405 L 589.833 487.956 L 589.668 487.956 L 256 487.956 L 238.833 517.405 M 133.392 647.75 C 133.142 646.875 133 645.955 133 645 M 712.833 157 L 712.833 157 C 721.67 157 728.833 164.163 728.833 173 L 728.833 658.833 C 728.833 667.67 721.67 674.833 712.833 674.833 L 133 674.833 L 133 674.833 C 124.163 674.833 117 667.67 117 658.833 L 117 173 C 117 164.163 124.163 157 133 157 L 133 157 L 133 162 C 133 139.909 150.909 122 173 122 L 216 122 C 238.091 122 256 139.909 256 162 L 256 487.956 L 589.668 487.956 L 589.668 162 C 589.668 139.909 607.577 122 629.668 122 L 672.668 122 C 694.759 122 712.668 139.909 712.668 162 L 712.668 645 C 712.668 645.955 712.526 646.875 712.276 647.75 " />
</svg>
