<?xml version="1.0" standalone="no"?>
<svg xmlns="http://www.w3.org/2000/svg" version="1.1">
<path stroke="black" stroke-width="1" fill="none" fill-rule="nonzero" transform="matrix(1 0 0 -1 0 137.474)" d="M 0.8346 70.94 L 0.8346 70.94 C 0.9464 86.0574 5.3999 99.7641 14.1954 112.06 L 14.1954 112.06 C 23.1716 124.225 34.8312 132.696 49.1742 137.474 L 49.1742 137.474 C 63.5863 142.039 77.9984 142.039 92.4104 137.474 L 92.4104 137.474 C 106.753 132.696 118.413 124.225 127.389 112.06 L 127.389 112.06 C 136.185 99.7641 140.638 86.0574 140.75 70.94 L 140.75 70.94 C 140.638 55.8225 136.185 42.1158 127.389 29.8199 L 127.389 29.8199 C 118.413 17.6553 106.753 9.1841 92.4104 4.4063 L 92.4104 4.4063 C 77.9984 -0.159 63.5863 -0.159 49.1742 4.4063 L 49.1742 4.4063 C 34.8312 9.1841 23.1716 17.6553 14.1954 29.8199 L 14.1954 29.8199 C 5.3999 42.1158 0.9464 55.8225 0.8346 70.94 M 51.3353 70.94 L 51.3353 70.94 C 51.3664 75.1445 52.6051 78.9567 55.0513 82.3765 L 55.0513 82.3765 C 57.5478 85.7598 60.7906 88.1158 64.7798 89.4446 L 64.7798 89.4446 C 68.7881 90.7144 72.7965 90.7144 76.8049 89.4446 L 76.8049 89.4446 C 80.794 88.1158 84.0368 85.7598 86.5333 82.3765 L 86.5333 82.3765 C 88.9796 78.9567 90.2182 75.1445 90.2493 70.94 L 90.2493 70.94 C 90.2182 66.7354 88.9796 62.9232 86.5333 59.5034 L 86.5333 59.5034 C 84.0368 56.1202 80.794 53.7641 76.8049 52.4353 L 76.8049 52.4353 C 72.7965 51.1656 68.7881 51.1656 64.7798 52.4353 L 64.7798 52.4353 C 60.7906 53.7641 57.5478 56.1202 55.0513 59.5034 L 55.0513 59.5034 C 52.6051 62.9232 51.3664 66.7354 51.3353 70.94 " />
</svg>
