<?xml version="1.0" standalone="no"?>
<svg xmlns="http://www.w3.org/2000/svg" version="1.1">
<path stroke="black" stroke-width="1" fill="none" fill-rule="nonzero" transform="matrix(1 0 0 -1 0 34.626)" d="M 16.873 30.2988 C 13.9922 30.2432 11.1299 29.8184 8.35742 29.0337 C 7.4917 28.7173 6.60693 28.4575 5.70752 28.2563 C 4.40039 27.98 3.06641 27.8496 1.73047 27.8686 C 1.56348 27.5185 1.19629 27.3091 0.81006 27.3447 C 0.42383 27.3799 0.10059 27.6519 0 28.0264 C 0 28.0264 0 32.478 0 32.478 C 0.06982 32.8848 0.41309 33.1885 0.82568 33.207 C 1.23779 33.2261 1.60742 32.9551 1.71436 32.5566 C 1.71436 32.5566 1.71533 32.5566 1.71533 32.5566 C 3.74951 32.5581 5.77393 32.8403 7.73145 33.395 C 10.7153 34.1841 13.7866 34.5977 16.873 34.626 C 19.96 34.5977 23.0312 34.1841 26.0146 33.395 C 27.2324 33.0615 28.4707 32.8115 29.7217 32.646 C 30.2529 32.5903 30.7861 32.5596 31.3203 32.5532 C 31.4932 32.5508 31.665 32.5503 31.8379 32.5522 C 31.8857 32.5532 31.9336 32.5537 31.9814 32.5552 C 31.9941 32.5552 32.0068 32.5557 32.0195 32.5561 C 32.0195 32.5561 32.0293 32.5561 32.0293 32.5561 C 32.0293 32.5561 32.0322 32.5566 32.0322 32.5566 C 32.1387 32.9551 32.5088 33.2261 32.9209 33.207 C 33.333 33.1885 33.6768 32.8853 33.7461 32.478 C 33.7461 32.478 33.7461 28.0264 33.7461 28.0264 C 33.6455 27.6519 33.3223 27.3799 32.9365 27.3447 C 32.5498 27.3091 32.1826 27.5185 32.0156 27.8686 C 30.6797 27.8496 29.3457 27.98 28.0391 28.2563 C 27.1396 28.4575 26.2549 28.7173 25.3887 29.0337 C 22.6162 29.8184 19.7539 30.2432 16.873 30.2988 C 16.873 30.2988 16.873 30.2988 16.873 30.2988 Z M 32.0156 0 C 32.0156 0 32.0156 27.8686 32.0156 27.8686 C 30.6797 27.8496 29.3457 27.98 28.0391 28.2563 C 27.1396 28.4575 26.2549 28.7173 25.3887 29.0337 C 25.3887 29.0337 8.35742 29.0337 8.35742 29.0337 C 7.4917 28.7173 6.60693 28.4575 5.70752 28.2563 C 4.40039 27.98 3.06641 27.8496 1.73047 27.8686 C 1.73047 27.8686 1.73047 0 1.73047 0 C 1.73047 0 32.0156 0 32.0156 0 Z M 32.0156 0 " />
</svg>
