<?xml version="1.0" standalone="no"?>
<svg xmlns="http://www.w3.org/2000/svg" version="1.1">
<path stroke="black" stroke-width="1" fill="none" fill-rule="nonzero" transform="matrix(1 0 0 -1 0 512)" d="M 136.534 511.999 L 91.0232 511.999 M 91.0229 511.999 L 45.5119 511.999 M 182.046 511.999 L 136.534 511.999 M 45.5117 511.999 L 0.00069809 511.999 M 182.046 273.067 L 227.557 273.067 M 227.557 511.999 L 182.046 511.999 M 0.0005 273.067 L 45.5115 273.067 M 136.534 273.067 L 91.0232 273.067 M 273.068 273.067 L 512 273.067 M 273.068 511.999 L 512 511.999 M 273.068 511.999 L 273.068 273.066 M 136.534 273.067 L 182.046 273.067 M 227.557 273.067 L 273.068 273.067 M 273.068 511.999 L 227.557 511.999 M 45.5117 273.067 L 45.5117 512 M 0.0005 511.999 L 0.0005 273.066 M 91.0229 273.067 L 91.0229 512 M 136.534 273.067 L 136.534 512 M 182.046 273.067 L 182.046 512 M 227.557 273.067 L 227.557 512 M 273.068 273.067 L 273.068 227.555 M 273.068 227.555 L 273.068 182.044 M 273.068 182.044 L 273.068 136.533 M 273.068 136.533 L 273.068 91.0212 M 273.068 91.0215 L 273.068 45.5115 M 273.068 45.5117 L 273.068 -0.000301361 M 273.068 227.555 L 512 227.555 M 273.068 182.044 L 512 182.044 M 273.068 136.533 L 512 136.533 M 273.068 91.0215 L 512 91.0215 M 273.068 45.5117 L 512 45.5117 M 273.068 0 L 512 0 M 45.5117 273.067 L 91.0227 273.067 M 392 23 L 392 393 M 392 393 L 60.667 393 M 60.667 393 L 67.129 385.667 M 60.667 393 L 67.129 400.333 " />
</svg>
