<?xml version="1.0" standalone="no"?>
<svg xmlns="http://www.w3.org/2000/svg" version="1.1">
<path stroke="black" stroke-width="1" fill="none" fill-rule="nonzero" transform="matrix(1 0 0 -1 0 633)" d="M 281.97 523.667 L 281.316 538.88 M 281.299 538.823 L 279.293 553.831 L 275.971 568.55 L 271.366 582.838 L 265.521 596.555 L 258.493 609.57 L 250.35 621.758 L 241.169 633 M 250.582 621.404 L 142.667 524.112 M 276 524.112 L 276 518.431 L 142.438 518.431 L 142.438 524.058 L 127.901 524.058 L 127.901 496.407 L 142.438 496.407 L 142.438 501.992 L 276 501.992 L 276 496.407 L 290.537 496.407 L 290.537 524.112 L 276 524.112 Z M 142.439 518.432 L 142.439 501.993 M 276 518.432 L 276 502 " />
</svg>
