<?xml version="1.0" standalone="no"?>
<svg xmlns="http://www.w3.org/2000/svg" version="1.1">
<path stroke="black" stroke-width="1" fill="none" fill-rule="nonzero" transform="matrix(1 0 0 -1 0 382.534)" d="M 2.0997 40.1086 L 14.0052 40.1086 M 14.0052 40.1086 L 14.0052 2.9748 M 14.0052 2.9748 L 2.0997 2.9748 M 2.0997 2.9748 L 2.0997 40.1086 M 710.761 40.1086 L 698.856 40.1086 M 698.856 40.1086 L 698.856 2.9748 M 698.856 2.9748 L 710.761 2.9748 M 710.761 2.9748 L 710.761 40.1086 M 356.43 40.1086 L 356.43 2.9748 M 698.856 40.1086 L 698.856 2.9748 M 698.856 40.1086 L 698.856 382.534 M 356.43 40.1086 L 356.43 2.9748 M 14.0052 40.1086 L 14.0052 2.9748 M 14.0052 40.1086 L 14.0052 382.534 M 698.855 382.534 L 665.292 380.885 L 632.052 375.954 L 599.455 367.789 L 567.815 356.468 L 537.437 342.101 L 508.614 324.825 L 481.623 304.807 L 456.724 282.24 L 434.157 257.341 L 414.139 230.35 L 396.863 201.527 L 382.496 171.149 L 371.175 139.509 L 363.01 106.912 L 358.079 73.6722 M 356.43 40.1086 L 354.781 73.672 L 349.851 106.912 L 341.686 139.509 L 330.365 171.149 L 315.997 201.527 L 298.721 230.35 L 278.704 257.341 L 256.137 282.24 L 231.237 304.807 L 204.247 324.825 L 175.423 342.101 L 145.046 356.468 L 113.406 367.789 L 80.8092 375.954 L 47.5689 380.885 M 47.5115 380.874 L 14.0052 382.534 M 358.098 73.528 L 356.43 2.9748 " />
</svg>
