<?xml version="1.0" standalone="no"?>
<svg xmlns="http://www.w3.org/2000/svg" version="1.1">
<path stroke="black" stroke-width="1" fill="none" fill-rule="nonzero" transform="matrix(1 0 0 -1 0 636.943)" d="M 313.151 478.192 C 314.866 480.958 316.908 483.501 319.224 485.764 C 316.908 483.5 314.865 480.96 313.151 478.192 Z M 417.349 603.942 C 422.273 603.942 426.266 599.95 426.266 595.025 C 426.266 590.101 422.273 586.109 417.349 586.109 C 412.424 586.109 408.432 590.101 408.432 595.025 C 408.432 599.95 412.424 603.942 417.349 603.942 Z M 514.936 559.194 C 515.222 559.246 515.508 559.295 515.795 559.348 L 515.795 559.348 C 521.654 560.429 525.456 567.015 524.034 573.616 L 512.292 628.102 C 511.173 633.294 507.106 636.943 502.438 636.943 L 332.536 636.943 C 327.868 636.943 323.802 633.294 322.683 628.102 L 310.94 573.616 C 309.518 567.015 313.32 560.429 319.18 559.348 L 319.18 559.348 C 384.012 547.379 450.092 547.331 514.936 559.194 Z M 389.501 497.164 L 445.198 497.164 L 487.522 497.164 C 498.194 497.164 507.881 492.977 515.053 486.167 L 508.276 548.073 C 507.891 551.591 509.394 555.051 512.229 557.17 L 514.936 559.194 C 450.093 547.331 384.013 547.38 319.18 559.348 L 319.18 559.348 L 322.093 557.17 C 324.927 555.051 326.431 551.591 326.045 548.073 L 319.224 485.765 L 319.224 485.765 C 326.436 492.814 336.296 497.164 347.177 497.164 L 389.501 497.164 Z M 527.467 459.26 C 527.456 459.471 527.433 459.678 527.419 459.888 C 527.387 460.37 527.355 460.853 527.306 461.33 C 527.282 461.564 527.246 461.794 527.217 462.026 C 527.163 462.477 527.109 462.929 527.04 463.376 C 527.004 463.602 526.958 463.824 526.92 464.048 C 526.842 464.498 526.764 464.947 526.671 465.392 C 526.627 465.602 526.574 465.808 526.527 466.017 C 526.424 466.473 526.32 466.927 526.201 467.377 C 526.151 467.566 526.094 467.753 526.041 467.941 C 525.911 468.405 525.779 468.868 525.634 469.325 C 525.58 469.494 525.52 469.66 525.464 469.828 C 525.306 470.301 525.143 470.773 524.968 471.238 C 524.914 471.383 524.855 471.525 524.798 471.669 C 524.61 472.153 524.416 472.634 524.209 473.109 C 524.156 473.231 524.099 473.351 524.045 473.472 C 523.824 473.965 523.597 474.454 523.357 474.937 C 523.308 475.035 523.256 475.132 523.206 475.231 C 522.952 475.732 522.689 476.228 522.415 476.717 C 522.372 476.793 522.327 476.869 522.283 476.945 C 521.994 477.452 521.696 477.952 521.386 478.445 C 521.35 478.501 521.313 478.557 521.278 478.613 C 520.953 479.123 520.618 479.625 520.271 480.118 C 520.245 480.156 520.217 480.194 520.191 480.232 C 519.831 480.74 519.461 481.239 519.078 481.729 C 519.059 481.754 519.04 481.778 519.021 481.802 C 518.628 482.305 518.223 482.797 517.806 483.28 C 517.796 483.291 517.786 483.303 517.776 483.314 C 517.35 483.806 516.913 484.288 516.464 484.759 C 516.46 484.763 516.455 484.768 516.451 484.772 C 515.996 485.249 515.53 485.714 515.053 486.167 C 507.881 492.978 498.193 497.164 487.522 497.164 L 445.198 497.164 L 389.5 497.164 L 347.176 497.164 C 336.295 497.164 326.435 492.814 319.224 485.765 C 316.908 483.501 314.866 480.959 313.151 478.193 C 313.146 478.184 313.14 478.176 313.135 478.167 C 312.803 477.63 312.484 477.085 312.177 476.532 C 312.166 476.511 312.153 476.491 312.141 476.47 C 311.845 475.932 311.561 475.387 311.289 474.834 C 311.27 474.796 311.249 474.759 311.23 474.72 C 310.969 474.186 310.722 473.645 310.484 473.098 C 310.458 473.039 310.43 472.981 310.404 472.922 C 310.18 472.398 309.97 471.868 309.767 471.333 C 309.734 471.247 309.698 471.163 309.666 471.077 C 309.476 470.565 309.301 470.046 309.132 469.524 C 309.096 469.413 309.054 469.303 309.019 469.191 C 308.862 468.692 308.72 468.186 308.582 467.678 C 308.545 467.541 308.501 467.405 308.465 467.267 C 308.34 466.784 308.231 466.296 308.123 465.806 C 308.086 465.639 308.042 465.474 308.007 465.305 C 307.91 464.836 307.83 464.36 307.749 463.885 C 307.717 463.693 307.677 463.505 307.647 463.313 C 307.575 462.846 307.521 462.373 307.465 461.901 C 307.441 461.697 307.408 461.495 307.387 461.29 C 307.338 460.809 307.307 460.323 307.275 459.837 C 307.262 459.637 307.24 459.44 307.229 459.239 C 307.194 458.552 307.176 457.86 307.176 457.164 L 307.176 354.419 C 307.176 272.955 356.502 206.915 417.349 206.915 C 478.196 206.915 527.522 272.955 527.522 354.419 L 527.522 457.164 C 527.522 457.867 527.503 458.566 527.467 459.26 Z M 417.349 586.109 C 422.273 586.109 426.266 590.101 426.266 595.026 C 426.266 599.95 422.273 603.942 417.349 603.942 C 412.424 603.942 408.432 599.95 408.432 595.026 C 408.432 590.101 412.424 586.109 417.349 586.109 Z M 417.349 586.109 " />
</svg>
