<?xml version="1.0" standalone="no"?>
<svg xmlns="http://www.w3.org/2000/svg" version="1.1">
<path stroke="black" stroke-width="1" fill="none" fill-rule="nonzero" transform="matrix(1 0 0 -1 0 421.961)" d="M 212.618 212.579 L 360.673 360.634 M 212.618 212.579 L 64.5627 360.634 M 212.618 212.578 L 64.5627 64.5233 M 212.618 212.578 L 360.673 64.5233 M 422 212.579 L 420.992 233.102 L 417.977 253.427 L 412.984 273.359 L 406.062 292.706 L 397.277 311.28 L 386.713 328.905 L 374.472 345.409 L 360.673 360.634 L 345.449 374.433 L 328.944 386.673 L 311.32 397.237 L 292.745 406.022 L 273.398 412.945 L 253.466 417.937 L 233.141 420.952 L 212.618 421.961 L 192.095 420.952 L 171.77 417.937 L 151.838 412.945 L 132.491 406.022 L 113.916 397.237 L 96.2918 386.673 L 79.7875 374.433 L 64.5629 360.634 L 50.7638 345.409 L 38.5234 328.905 L 27.9598 311.28 L 19.1745 292.706 L 12.2521 273.359 L 7.2594 253.427 L 4.2445 233.102 L 3.2362 212.579 L 4.2445 192.055 L 7.2594 171.73 L 12.2521 151.798 L 19.1745 132.452 L 27.9598 113.877 L 38.5234 96.2524 L 50.7638 79.7481 L 64.5629 64.5235 L 79.7875 50.7244 L 96.2918 38.484 L 113.916 27.9202 L 132.491 19.135 L 151.838 12.2128 L 171.77 7.2199 L 192.095 4.2052 L 212.618 3.1968 L 233.141 4.2052 L 253.466 7.2199 L 273.398 12.2128 L 292.745 19.135 L 311.32 27.9202 L 328.944 38.484 L 345.449 50.7244 L 360.673 64.5235 L 374.472 79.7481 L 386.713 96.2524 L 397.277 113.877 L 406.062 132.452 L 412.984 151.798 L 417.977 171.73 L 420.992 192.055 L 422 212.579 L 422 212.579 " />
</svg>
