<?xml version="1.0" standalone="no"?>
<svg xmlns="http://www.w3.org/2000/svg" version="1.1">
<path stroke="black" stroke-width="1" fill="none" fill-rule="nonzero" transform="matrix(1 0 0 -1 0 95.2207)" d="M 2.40186 88.3896 C 2.40186 88.3896 2.68652 90.0278 2.68652 90.0278 C 2.68652 90.0278 3.23486 90.8745 3.23486 90.8745 C 3.23486 90.8745 4.10791 91.6182 4.10791 91.6182 C 4.10791 91.6182 5.25488 92.2612 5.25488 92.2612 C 5.25488 92.2612 6.63135 92.7783 6.63135 92.7783 C 6.63135 92.7783 8.24951 93.145 8.24951 93.145 C 8.24951 93.145 9.66846 93.3599 9.66846 93.3599 C 9.66846 93.3599 90.332 93.3599 90.332 93.3599 C 90.332 93.3599 92.6084 92.9824 92.6084 92.9824 C 92.6084 92.9824 94.083 92.5371 94.083 92.5371 C 94.083 92.5371 95.6211 91.7856 95.6211 91.7856 C 95.6211 91.7856 96.7656 90.8745 96.7656 90.8745 C 96.7656 90.8745 97.3877 89.7969 97.3877 89.7969 C 97.3877 89.7969 97.5977 88.3896 97.5977 88.3896 M 2.39648 87.2524 C 2.39648 87.2524 2.23291 87.4365 2.23291 87.4365 C 2.23291 87.4365 1.51367 87.623 1.51367 87.623 C 1.51367 87.623 0.76709 87.4229 0.76709 87.4229 C 0.76709 87.4229 0.2207 86.8765 0.2207 86.8765 C 0.2207 86.8765 0.02393 86.1064 0.02393 86.1064 C 0.02393 86.1064 0.38721 85.0586 0.38721 85.0586 C 0.38721 85.0586 2.3999 69.9038 2.3999 69.9038 M 2.57715 8.02148 C 2.57715 8.02148 2.23975 7.74414 2.23975 7.74414 C 2.23975 7.74414 1.49463 7.53125 1.49463 7.53125 C 1.49463 7.53125 0.74658 7.74414 0.74658 7.74414 C 0.74658 7.74414 0.2002 8.29102 0.2002 8.29102 C 0.2002 8.29102 0 9.03711 0 9.03711 C 0 9.03711 0.42725 10.4883 0.42725 10.4883 C 0.42725 10.4883 2.40332 22.9805 2.40332 22.9805 M 97.4228 8.02148 C 97.4228 8.02148 97.7598 7.74414 97.7598 7.74414 C 97.7598 7.74414 98.5049 7.53125 98.5049 7.53125 C 98.5049 7.53125 99.2529 7.74414 99.2529 7.74414 C 99.2529 7.74414 99.7998 8.29102 99.7998 8.29102 C 99.7998 8.29102 100 9.03711 100 9.03711 C 100 9.03711 99.5723 10.4883 99.5723 10.4883 C 99.5723 10.4883 97.5967 22.9805 97.5967 22.9805 M 97.6035 87.2524 C 97.6035 87.2524 97.7676 87.4365 97.7676 87.4365 C 97.7676 87.4365 98.4863 87.623 98.4863 87.623 C 98.4863 87.623 99.2324 87.4229 99.2324 87.4229 C 99.2324 87.4229 99.7793 86.8765 99.7793 86.8765 C 99.7793 86.8765 99.9756 86.1064 99.9756 86.1064 C 99.9756 86.1064 99.6133 85.0586 99.6133 85.0586 C 99.6133 85.0586 97.6006 69.9038 97.6006 69.9038 M 2.40186 77.2212 C 2.40186 77.2212 18.2192 80.772 18.2192 80.772 C 18.2192 80.772 34.1343 82.8911 34.1343 82.8911 C 34.1343 82.8911 50 83.5586 50 83.5586 C 50 83.5586 65.8662 82.8911 65.8662 82.8911 C 65.8662 82.8911 81.7812 80.772 81.7812 80.772 C 81.7812 80.772 97.6016 77.228 97.6016 77.228 M 50 95.2207 C 50 95.2207 9.53564 94.9731 9.53564 94.9731 C 9.53564 94.9731 7.01221 94.479 7.01221 94.479 C 7.01221 94.479 5.25537 93.834 5.25537 93.834 C 5.25537 93.834 3.63428 92.7998 3.63428 92.7998 C 3.63428 92.7998 2.68701 91.5435 2.68701 91.5435 C 2.68701 91.5435 2.40186 88.3896 2.40186 88.3896 C 2.40186 88.3896 2.40186 9.77539 2.40186 9.77539 C 2.40186 9.77539 2.66211 7.34766 2.66211 7.34766 C 2.66211 7.34766 3.75195 5.20117 3.75195 5.20117 C 3.75195 5.20117 6.13379 3.0332 6.13379 3.0332 C 6.13379 3.0332 8.53613 2.04297 8.53613 2.04297 C 8.53613 2.04297 50 0 50 0 M 50 95.2207 C 50 95.2207 90.4639 94.9731 90.4639 94.9731 C 90.4639 94.9731 92.9883 94.479 92.9883 94.479 C 92.9883 94.479 94.7451 93.834 94.7451 93.834 C 94.7451 93.834 96.3652 92.7998 96.3652 92.7998 C 96.3652 92.7998 97.3135 91.5435 97.3135 91.5435 C 97.3135 91.5435 97.5977 88.3896 97.5977 88.3896 C 97.5977 88.3896 97.5977 9.77539 97.5977 9.77539 C 97.5977 9.77539 97.3379 7.34766 97.3379 7.34766 C 97.3379 7.34766 96.248 5.20117 96.248 5.20117 C 96.248 5.20117 93.8662 3.0332 93.8662 3.0332 C 93.8662 3.0332 91.4639 2.04297 91.4639 2.04297 C 91.4639 2.04297 50 0 50 0 " />
</svg>
