<?xml version="1.0" standalone="no"?>
<svg xmlns="http://www.w3.org/2000/svg" version="1.1">
<path stroke="black" stroke-width="1" fill="none" fill-rule="nonzero" transform="matrix(1 0 0 -1 0 541.255)" d="M 267.588 449.023 L 228.626 445.085 C 195.183 441.703 161.484 441.703 128.041 445.085 L 88.2427 449.108 C 81.6697 449.772 75.8487 453.641 72.6897 459.443 L 72.6897 459.443 C 66.0317 471.669 65.1807 486.232 70.3687 499.151 L 75.2187 511.227 C 76.7407 515.016 80.4147 517.5 84.4987 517.5 L 271.779 517.5 C 276.055 517.5 279.858 514.781 281.241 510.736 L 285.683 497.742 C 289.85 485.553 289.152 472.227 283.735 460.539 L 283.722 460.51 C 280.75 454.1 274.617 449.734 267.588 449.023 Z M 710.316 449.023 L 671.354 445.085 C 637.911 441.703 604.212 441.703 570.769 445.085 L 530.971 449.108 C 524.398 449.772 518.577 453.641 515.418 459.443 L 515.418 459.443 C 508.76 471.669 507.909 486.232 513.097 499.151 L 517.947 511.227 C 519.469 515.016 523.143 517.5 527.227 517.5 L 714.507 517.5 C 718.783 517.5 722.586 514.781 723.969 510.736 L 728.411 497.742 C 732.578 485.553 731.88 472.227 726.463 460.539 L 726.45 460.51 C 723.478 454.1 717.345 449.734 710.316 449.023 Z M 288.33 483.503 C 288.144 488.312 287.267 493.109 285.683 497.742 L 281.241 510.735 C 279.858 514.781 276.055 517.5 271.779 517.5 L 84.4987 517.5 C 80.6407 517.5 77.1517 515.282 75.4937 511.843 C 72.7437 513.086 69.7007 513.784 66.4997 513.784 L 48.6157 513.784 C 36.5167 513.784 26.6157 503.884 26.6157 491.784 L 26.6157 282 C 26.6157 269.9 36.5167 260 48.6157 260 L 66.4997 260 C 70.7887 260 74.7967 261.248 78.1897 263.392 C 78.5987 261.617 80.1807 260.29 82.0797 260.29 L 271.409 260.29 C 280.797 260.29 288.409 267.901 288.409 277.29 L 288.409 483.503 L 288.33 483.503 Z M 750.929 513.784 L 733.045 513.784 C 729.671 513.784 726.468 513.013 723.603 511.641 C 721.994 515.18 718.454 517.5 714.506 517.5 L 527.226 517.5 C 523.142 517.5 519.469 515.016 517.947 511.227 L 513.097 499.151 C 511.071 494.107 509.979 488.811 509.781 483.504 L 509.735 483.504 L 509.735 277.29 C 509.735 267.901 517.346 260.29 526.735 260.29 L 716.063 260.29 C 718.266 260.29 720.052 262.073 720.062 264.273 C 723.707 261.591 728.199 260 733.045 260 L 750.929 260 C 763.029 260 772.929 269.9 772.929 282 L 772.929 491.784 C 772.929 503.884 763.029 513.784 750.929 513.784 Z M 750.929 513.784 L 741 513.784 L 741 531.255 C 741 536.779 736.523 541.255 731 541.255 L 67.1063 541.255 C 61.5843 541.255 57.1063 536.779 57.1063 531.255 L 57.1063 513.784 L 48.6163 513.784 C 36.5163 513.784 26.6163 503.884 26.6163 491.784 L 26.6163 282 C 26.6163 269.9 36.5163 260 48.6163 260 L 66.5003 260 C 78.6003 260 88.5003 269.9 88.5003 282 L 88.5003 449.082 L 128.04 445.085 C 161.483 441.703 195.182 441.703 228.625 445.085 L 267.587 449.023 C 274.617 449.734 280.75 454.1 283.721 460.51 L 283.734 460.539 C 289.152 472.227 289.85 485.553 285.682 497.742 L 282.176 508 L 295.287 508 L 291.733 499.151 C 286.544 486.232 287.395 471.669 294.053 459.443 C 297.213 453.641 303.033 449.772 309.606 449.108 L 349.404 445.085 C 382.847 441.703 416.546 441.703 449.99 445.085 L 488.951 449.023 C 495.981 449.734 502.114 454.1 505.085 460.51 L 505.098 460.539 C 510.516 472.227 511.214 485.553 507.046 497.742 L 503.54 508 L 516.651 508 L 513.097 499.151 C 507.908 486.232 508.759 471.669 515.417 459.443 L 515.417 459.443 C 518.577 453.641 524.397 449.772 530.97 449.108 L 570.768 445.085 C 604.212 441.703 637.91 441.703 671.354 445.085 L 710.316 449.023 C 710.561 449.048 710.802 449.087 711.045 449.121 L 711.045 282 C 711.045 269.9 720.945 260 733.045 260 L 750.929 260 C 763.029 260 772.929 269.9 772.929 282 L 772.929 491.784 C 772.929 503.884 763.029 513.784 750.929 513.784 Z M 509.694 483.503 C 509.508 488.312 508.631 493.109 507.047 497.742 L 502.605 510.735 C 501.222 514.781 497.419 517.5 493.143 517.5 L 305.863 517.5 C 301.779 517.5 298.105 515.016 296.583 511.226 L 291.733 499.151 C 289.708 494.106 288.615 488.811 288.417 483.503 L 288.408 483.503 L 288.408 483.137 C 288.382 482.227 288.382 481.317 288.408 480.407 L 288.408 277 C 288.408 267.611 296.02 260 305.408 260 L 492.736 260 C 502.124 260 509.736 267.611 509.736 277 L 509.736 483.503 L 509.694 483.503 Z M 509.694 483.503 C 509.508 488.312 508.631 493.109 507.047 497.742 L 502.605 510.735 C 501.222 514.781 497.419 517.5 493.143 517.5 L 305.863 517.5 C 301.779 517.5 298.105 515.016 296.583 511.226 L 291.733 499.151 C 289.708 494.106 288.615 488.811 288.417 483.503 L 288.408 483.503 L 288.408 483.137 C 288.382 482.227 288.382 481.317 288.408 480.407 L 288.408 277 C 288.408 267.611 296.02 260 305.408 260 L 492.736 260 C 502.124 260 509.736 267.611 509.736 277 L 509.736 483.503 L 509.694 483.503 Z M 509.694 483.503 " />
</svg>
