<?xml version="1.0" standalone="no"?>
<svg xmlns="http://www.w3.org/2000/svg" version="1.1">
<path stroke="black" stroke-width="1" fill="none" fill-rule="nonzero" transform="matrix(1 0 0 -1 0 792.079)" d="M 311.864 346.49 L 311.864 296.98 M 311.864 346.49 L 311.864 396 M 311.864 544.529 L 311.864 594.039 M 0.1357 544.529 L 0.1357 594.039 M 311.864 98.9414 L 311.864 148.451 M 311.864 296.98 L 311.864 247.471 M 0.1357 296.98 L 311.865 296.98 M 0.1357 247.471 L 0.1357 197.961 M 0.1357 643.549 L 0.1357 693.059 M 0.1357 148.451 L 311.865 148.451 M 0.1357 247.471 L 311.865 247.471 M 311.864 396 L 311.864 445.51 M 0.1357 396 L 0.1357 445.51 M 0.1357 396 L 311.865 396 M 0.1357 148.451 L 0.1357 197.961 M 311.864 643.549 L 311.864 693.059 M 311.864 247.471 L 311.864 197.961 M 0.1357 544.529 L 311.865 544.529 M 0.1357 643.549 L 311.865 643.549 M 311.864 49.4316 L 0.135284 49.4316 M 311.864 346.49 L 0.135284 346.49 M 311.864 98.9414 L 311.864 49.4314 M 0.1357 98.9414 L 311.865 98.9414 M 311.864 495.02 L 0.135284 495.02 M 311.864 742.569 L 311.864 792.079 M 0.1357 643.549 L 0.1357 594.039 M 0.1357 296.98 L 0.1357 247.471 M 311.864 445.51 L 311.864 495.02 M 0.1357 594.039 L 311.865 594.039 M 311.864 693.059 L 311.864 742.569 M 311.864 -0.0781 L 311.864 49.4319 M 0.1357 742.569 L 0.1357 693.059 M 0.1357 742.569 L 0.1357 792.079 M 0.1357 742.569 L 311.865 742.569 M 0.1357 396 L 0.1357 346.49 M 0.1357 495.02 L 0.1357 445.509 M 0.1357 544.529 L 0.1357 495.019 M 311.864 495.02 L 311.864 544.529 M 0.1357 -0.0781 L 0.1357 49.4319 M 0.1357 346.49 L 0.1357 296.98 M 0.1357 197.961 L 311.865 197.961 M 0.1357 98.9414 L 0.1357 148.451 M 0.1357 445.51 L 311.865 445.51 M 311.864 197.961 L 311.864 148.451 M 311.864 594.039 L 311.864 643.549 M 0.1357 49.4316 L 0.1357 98.9416 M 0.1357 693.059 L 311.865 693.059 M 153.09 26.9277 L 153.09 719.893 M 153.09 719.893 L 142.973 709.776 M 153.09 719.893 L 163.158 709.826 M 0.2715 791.069 L 312.001 791.069 M 311.875 0 L 0.135986 0 " />
</svg>
