<?xml version="1.0" standalone="no"?>
<svg xmlns="http://www.w3.org/2000/svg" version="1.1">
<path stroke="black" stroke-width="1" fill="none" fill-rule="nonzero" transform="matrix(1 0 0 -1 0 280.965)" d="M 13.8386 4.1523 L 246.279 4.1523 M 2.5001 3.5854 L 13.8385 3.5854 M 246.28 3.5854 L 257.618 3.5854 M 2.5 3.5854 L 2.5 236.593 M 2.5001 154.056 L 4.2206 174.821 M 4.2207 174.821 L 9.3927 195.246 M 9.3927 195.246 L 17.857 214.542 M 17.8569 214.543 L 29.3821 232.182 M 29.382 232.182 L 43.6523 247.684 M 43.6522 247.684 L 60.2803 260.626 M 60.2802 260.626 L 78.811 270.654 M 78.8109 270.654 L 98.7408 277.496 M 98.7408 277.496 L 119.523 280.965 M 119.523 280.965 L 140.595 280.965 M 140.595 280.965 L 161.377 277.496 M 161.377 277.496 L 181.307 270.654 M 181.307 270.654 L 199.838 260.626 M 199.838 260.626 L 216.466 247.684 M 216.466 247.684 L 230.736 232.182 M 230.736 232.182 L 242.261 214.543 M 242.261 214.542 L 250.725 195.246 M 250.725 195.246 L 255.897 174.821 M 255.897 174.821 L 257.618 154.056 M 257.618 236.593 L 257.618 3.5854 M 13.8386 3.5855 L 13.8386 153.587 M 13.8385 153.587 L 15.4425 172.947 M 15.4424 172.947 L 20.1542 191.552 M 20.1541 191.552 L 27.8633 209.127 M 27.8633 209.127 L 38.3599 225.194 M 38.36 225.194 L 51.358 239.314 M 51.358 239.314 L 66.5028 251.101 M 66.5029 251.102 L 83.3815 260.235 M 83.3815 260.235 L 101.533 266.467 M 101.533 266.467 L 120.463 269.626 M 120.463 269.626 L 139.655 269.626 M 139.655 269.626 L 158.585 266.467 M 158.585 266.467 L 176.737 260.235 M 176.737 260.235 L 193.615 251.102 M 193.615 251.101 L 208.76 239.314 M 208.76 239.314 L 221.758 225.194 M 221.758 225.194 L 232.255 209.127 M 232.255 209.127 L 239.964 191.552 M 239.964 191.552 L 244.676 172.947 M 244.676 172.947 L 246.28 153.587 M 246.279 153.587 L 246.279 3.5855 M 2.5 236.593 L 2.5862 236.679 M 2.5862 236.679 L 2.8418 236.762 M 2.8418 236.762 L 3.2597 236.84 M 3.2597 236.84 L 3.8266 236.911 M 3.8266 236.911 L 4.5251 236.972 M 4.5251 236.972 L 5.3346 237.021 M 5.3347 237.021 L 6.2304 237.058 M 6.2304 237.058 L 7.1851 237.08 M 7.1851 237.08 L 8.1693 237.088 M 8.1693 237.088 L 9.1535 237.08 M 9.1535 237.08 L 10.2204 237.055 M 257.618 236.593 L 257.532 236.679 M 257.532 236.679 L 257.276 236.762 M 257.276 236.762 L 256.858 236.84 M 256.858 236.84 L 256.292 236.911 M 256.292 236.911 L 255.593 236.972 M 255.593 236.972 L 254.783 237.021 M 254.783 237.021 L 253.888 237.058 M 253.888 237.058 L 252.933 237.08 M 252.933 237.08 L 251.949 237.088 M 251.949 237.088 L 250.964 237.08 M 250.964 237.08 L 249.914 237.055 M 246.28 9.1266 L 245.781 9.1061 M 10.6978 237.14 L 8.1693 237.122 M 251.949 237.122 L 249.442 237.141 M 249.442 237.141 L 238.832 236.708 M 238.832 236.708 L 226.855 236.398 M 211.802 236.009 L 198.093 235.654 M 198.093 235.654 L 156.086 235.093 M 156.086 235.093 L 113.593 235.037 M 113.593 235.036 L 71.4079 235.484 M 71.408 235.484 L 48.3209 236.015 M 33.2292 236.361 L 30.3153 236.428 M 30.3153 236.428 L 10.6977 237.14 M 8.1693 237.088 L 8.1693 237.122 M 251.949 237.088 L 251.949 237.122 " />
</svg>
