<?xml version="1.0" standalone="no"?>
<svg xmlns="http://www.w3.org/2000/svg" version="1.1">
<path stroke="black" stroke-width="1" fill="none" fill-rule="nonzero" transform="matrix(1 0 0 -1 0 137.366)" d="M 44.6475 66.7773 C 56.4125 66.7773 65.9925 76.3563 65.9925 88.1223 C 65.9925 99.8863 56.4125 109.523 44.6475 109.523 C 32.8825 109.523 23.2465 99.8863 23.2465 88.1223 C 23.2465 76.3563 32.8825 66.7773 44.6475 66.7773 Z M 97.0859 66.7773 C 108.851 66.7773 118.431 76.3563 118.431 88.1223 C 118.431 99.8863 108.851 109.523 97.0859 109.523 C 85.3209 109.523 75.7409 99.8863 75.7409 88.1223 C 75.7409 76.3563 85.3209 66.7773 97.0859 66.7773 Z M 70.8667 25.4873 C 82.6307 25.4873 92.2117 35.1233 92.2117 46.8883 C 92.2117 58.6533 82.6307 68.2333 70.8667 68.2333 C 59.1017 68.2333 49.4657 58.6533 49.4657 46.8883 C 49.4657 35.1233 59.1017 25.4873 70.8667 25.4873 Z M 4.366 4.366 L 137.366 4.366 L 137.366 137.366 L 4.366 137.366 Z M 4.366 4.366 " />
</svg>
