<?xml version="1.0" standalone="no"?>
<svg xmlns="http://www.w3.org/2000/svg" version="1.1">
<path stroke="black" stroke-width="1" fill="none" fill-rule="nonzero" transform="matrix(1 0 0 -1 0 140.066)" d="M 36.625 140.066 L 36.625 140.066 C 26.3181 135.495 17.9022 126.891 11.3773 114.253 L 11.3773 114.253 C 4.9888 101.464 1.7519 87.124 1.6667 71.2323 L 1.6667 71.2323 C 1.7519 55.3406 4.9888 41.0003 11.3773 28.2114 L 11.3773 28.2114 C 17.9022 15.5736 26.3181 6.9695 36.625 2.399 L 246.375 2.399 L 246.375 2.399 C 256.682 6.9695 265.098 15.5736 271.623 28.2114 L 271.623 28.2114 C 278.011 41.0003 281.248 55.3406 281.333 71.2323 L 281.333 71.2323 C 281.248 87.124 278.011 101.464 271.623 114.253 L 271.623 114.253 C 265.098 126.891 256.682 135.495 246.375 140.066 L 36.625 140.066 " />
</svg>
