<?xml version="1.0" standalone="no"?>
<svg xmlns="http://www.w3.org/2000/svg" version="1.1">
<path stroke="black" stroke-width="1" fill="none" fill-rule="nonzero" transform="matrix(1 0 0 -1 0 47.6103)" d="M 47.9141 26.793 C 47.9141 26.793 51.1611 27.8481 51.1611 27.8481 M 7.83643 13.0723 C 7.83643 13.0723 7.83643 30.3525 7.83643 30.3525 M 43.3242 13.0723 C 43.3242 13.0723 43.3242 30.3525 43.3242 30.3525 M 3.24658 30.1997 C 3.24658 30.1997 3.24658 13.0723 3.24658 13.0723 M 47.9141 30.3525 C 47.9141 30.3525 47.9141 13.0723 47.9141 13.0723 M 10.8154 35.9912 C 10.8154 35.9912 10.5801 32.0537 10.5801 32.0537 M 3.24658 30.1997 C 3.24658 30.1997 1.03564 30.9185 1.03564 30.9185 M 3.24658 26.793 C 3.24658 26.793 0 27.8481 0 27.8481 M 23.9604 40.0342 C 23.9604 40.0342 23.9604 47.6103 23.9604 47.6103 M 27.2002 40.0342 C 27.2002 40.0342 27.2002 47.6103 27.2002 47.6103 M 50.1592 30.9297 C 50.1592 30.9297 47.9141 30.1997 47.9141 30.1997 M 41.0889 0 C 41.0889 0 10.104 0 10.104 0 M 9.81738 32.7812 C 9.81738 32.7812 9.81201 36.3291 9.81201 36.3291 M 40.3447 35.9912 C 40.3447 35.9912 40.5801 32.0537 40.5801 32.0537 M 41.3428 32.7812 C 41.3428 32.7812 41.3486 36.3291 41.3486 36.3291 M 8.66406 1.44043 C 8.66406 1.44043 8.67725 33.1728 8.67725 33.1728 M 42.5078 33.1733 C 42.5078 33.1733 42.5293 1.44043 42.5293 1.44043 M 27.2002 45.9492 C 27.2002 45.9492 23.9604 45.9492 23.9604 45.9492 M 27.2002 47.6103 C 27.2002 47.6103 23.9604 47.6103 23.9604 47.6103 M 8.60791 28.458 C 8.60791 28.458 7.83643 28.7085 7.83643 28.7085 M 8.57568 25.0615 C 8.57568 25.0615 7.83643 25.3018 7.83643 25.3018 M 2.58105 30.416 C 2.58105 30.416 1.57959 27.335 1.57959 27.335 M 1.00098 30.9297 C 1.00098 30.9297 0 27.8481 0 27.8481 M 42.6338 25.0776 C 42.6338 25.0776 43.3242 25.3018 43.3242 25.3018 M 42.5957 28.4717 C 42.5957 28.4717 43.3242 28.7085 43.3242 28.7085 M 49.581 27.335 C 49.581 27.335 48.5801 30.416 48.5801 30.416 M 51.1611 27.8481 C 51.1611 27.8481 50.1592 30.9297 50.1592 30.9297 M 43.3242 30.3525 C 43.3242 30.3525 47.9141 30.3525 47.9141 30.3525 M 43.3242 13.0723 C 43.3242 13.0723 47.9141 13.0723 47.9141 13.0723 M 7.83643 13.0723 C 7.83643 13.0723 7.83643 13.2041 7.83643 13.2041 M 3.24658 30.3525 C 3.24658 30.3525 3.24658 30.2212 3.24658 30.2212 M 3.24658 13.2041 C 3.24658 13.2041 3.24658 13.0723 3.24658 13.0723 M 7.83643 30.3525 C 7.83643 30.3525 3.24658 30.3525 3.24658 30.3525 M 7.83643 13.0723 C 7.83643 13.0723 3.24658 13.0723 3.24658 13.0723 M 41.0889 0 C 41.8838 0 42.5293 0.64453 42.5293 1.43945 C 42.5293 1.44043 42.5293 1.44043 42.5293 1.44043 M 40.5547 32.0615 C 30.8398 35.3931 20.2925 35.3906 10.5801 32.0537 M 8.66406 1.44043 C 8.66357 0.64551 9.30811 0 10.1035 0 C 10.1035 0 10.1035 0 10.104 0 M 40.5811 32.0552 C 40.9228 31.98 41.2617 32.1968 41.3369 32.5396 C 41.3545 32.6186 41.3564 32.7012 41.3428 32.7812 M 9.81738 32.7812 C 9.75928 32.4351 9.99219 32.1074 10.3379 32.0493 C 10.4185 32.0356 10.5005 32.0376 10.5796 32.0552 M 10.8555 37.917 C 10.3267 38.0762 9.76904 37.7764 9.60986 37.2476 C 9.45117 36.7188 9.75098 36.1611 10.2798 36.0024 C 10.4541 35.9497 10.6392 35.9463 10.8154 35.9912 M 40.3203 35.9981 C 30.71 38.9741 20.4243 38.9717 10.8154 35.9912 M 9.81494 34.5806 C 9.15137 34.438 8.67773 33.8516 8.67725 33.1728 M 42.5078 33.1733 C 42.5078 33.8589 42.0234 34.4492 41.3516 34.5845 M 40.3447 35.9912 C 40.8799 35.8545 41.4248 36.1768 41.5615 36.7119 C 41.6982 37.2466 41.376 37.7915 40.8408 37.9282 C 40.6641 37.9731 40.4795 37.9692 40.3057 37.917 M 40.3047 37.916 C 30.6963 40.7739 20.4639 40.7739 10.855 37.917 M 42.5078 33.1733 C 42.5078 33.8589 42.0234 34.4492 41.3516 34.5845 " />
</svg>
