<?xml version="1.0" standalone="no"?>
<svg xmlns="http://www.w3.org/2000/svg" version="1.1">
<path stroke="black" stroke-width="1" fill="none" fill-rule="nonzero" transform="matrix(1 0 0 -1 0 78.679)" d="M 57.4034 44.5697 L 57.3863 44.9171 L 57.3353 45.2611 L 57.2508 45.5985 L 57.1337 45.9259 L 56.985 46.2403 L 56.8062 46.5386 L 56.5991 46.8179 L 56.3656 47.0756 L 56.1079 47.3092 L 55.8286 47.5163 L 55.5304 47.6951 L 55.2161 47.8438 L 54.8887 47.961 L 54.5514 48.0455 L 54.2074 48.0965 L 53.8601 48.1136 L 53.5128 48.0965 L 53.1689 48.0455 L 52.8316 47.961 L 52.5042 47.8438 L 52.1898 47.6951 L 51.8916 47.5163 L 51.6123 47.3092 L 51.3547 47.0756 L 51.1212 46.8179 L 50.914 46.5386 L 50.7353 46.2403 L 50.5866 45.9259 L 50.4694 45.5985 L 50.385 45.2611 L 50.3339 44.9171 L 50.3169 44.5697 L 50.3339 44.2224 L 50.385 43.8784 L 50.4694 43.541 L 50.5866 43.2135 L 50.7353 42.8992 L 50.914 42.6009 L 51.1212 42.3215 L 51.3547 42.0638 L 51.6123 41.8303 L 51.8916 41.6231 L 52.1898 41.4443 L 52.5042 41.2956 L 52.8316 41.1785 L 53.1689 41.094 L 53.5128 41.0429 L 53.8601 41.0259 L 54.2074 41.0429 L 54.5514 41.094 L 54.8887 41.1785 L 55.2161 41.2956 L 55.5304 41.4443 L 55.8286 41.6231 L 56.1079 41.8303 L 56.3656 42.0638 L 56.5991 42.3215 L 56.8062 42.6009 L 56.985 42.8992 L 57.1337 43.2135 L 57.2508 43.541 L 57.3353 43.8784 L 57.3863 44.2224 L 57.4034 44.5697 L 57.4034 44.5697 M 56.3418 66.8506 L 56.3298 67.0931 L 56.2941 67.3332 L 56.235 67.5687 L 56.153 67.7973 L 56.0489 68.0168 L 55.9237 68.2251 L 55.7787 68.4201 L 55.6153 68.6 L 55.4349 68.763 L 55.2394 68.9076 L 55.0306 69.0325 L 54.8105 69.1363 L 54.5813 69.218 L 54.3452 69.277 L 54.1044 69.3127 L 53.8613 69.3246 L 53.6182 69.3127 L 53.3774 69.277 L 53.1413 69.218 L 52.9121 69.1363 L 52.692 69.0325 L 52.4832 68.9076 L 52.2877 68.763 L 52.1073 68.6 L 51.9439 68.4201 L 51.7989 68.2251 L 51.6737 68.0168 L 51.5696 67.7973 L 51.4876 67.5687 L 51.4285 67.3332 L 51.3928 67.0931 L 51.3808 66.8506 L 51.3928 66.6081 L 51.4285 66.3679 L 51.4876 66.1324 L 51.5696 65.9038 L 51.6737 65.6843 L 51.7989 65.4761 L 51.9439 65.2811 L 52.1073 65.1012 L 52.2877 64.9381 L 52.4832 64.7935 L 52.692 64.6687 L 52.9121 64.5649 L 53.1413 64.4831 L 53.3774 64.4241 L 53.6182 64.3885 L 53.8613 64.3766 L 54.1044 64.3885 L 54.3452 64.4241 L 54.5813 64.4831 L 54.8105 64.5649 L 55.0306 64.6687 L 55.2394 64.7935 L 55.4349 64.9381 L 55.6153 65.1012 L 55.7787 65.2811 L 55.9237 65.4761 L 56.0489 65.6843 L 56.153 65.9038 L 56.235 66.1324 L 56.2941 66.3679 L 56.3298 66.6081 L 56.3418 66.8506 L 56.3418 66.8506 M 88.123 57.638 L 19.5973 57.638 M 105.143 3.3418 L 106.963 40.965 L 105.133 78.5875 M 3.2278 2.7114 L 53.8601 0.75 L 104.492 2.7114 M 18.388 9.7546 L 53.8601 8.4618 L 89.3323 9.7546 M 17.2401 56.2348 L 16.3931 33.6594 L 17.0756 11.0785 M 90.6447 11.0785 L 91.3271 33.6594 L 90.4801 56.2348 M 2.5767 3.3407 L 2.587 3.2713 L 2.6043 3.2033 L 2.6283 3.1374 L 2.6588 3.0741 L 2.6955 3.0142 L 2.7381 2.9582 L 2.786 2.9066 L 2.8389 2.8601 L 2.8963 2.819 L 2.9574 2.7838 L 3.0218 2.7549 L 3.0888 2.7324 L 3.1577 2.7166 M 17.0755 11.0651 L 17.0922 10.9223 L 17.1236 10.7819 L 17.1693 10.6454 L 17.2289 10.5142 L 17.3017 10.3898 L 17.387 10.2734 L 17.4838 10.1662 L 17.5912 10.0695 L 17.708 9.9841 L 17.8331 9.911 L 17.965 9.8509 L 18.1025 9.8046 L 18.244 9.7723 M 89.3323 9.7582 L 89.4764 9.7758 L 89.6179 9.8077 L 89.7553 9.8538 L 89.8873 9.9134 L 90.0123 9.9859 L 90.1291 10.0707 L 90.2365 10.1668 L 90.3333 10.2731 L 90.4186 10.3886 L 90.4914 10.5121 L 90.5509 10.6423 L 90.5966 10.7778 L 90.628 10.9172 M 104.493 2.7121 L 104.563 2.7208 L 104.632 2.7364 L 104.699 2.7585 L 104.763 2.7871 L 104.824 2.8218 L 104.881 2.8623 L 104.934 2.9082 L 104.982 2.959 L 105.025 3.0142 L 105.061 3.0733 L 105.092 3.1357 L 105.116 3.2007 L 105.133 3.2678 L 105.143 3.3362 M 2.5878 78.5861 L 105.132 78.5861 M 2.4042 3.4334 L 0.5847 41.0565 L 2.4152 78.679 " />
</svg>
