<?xml version="1.0" standalone="no"?>
<svg xmlns="http://www.w3.org/2000/svg" version="1.1">
<path stroke="black" stroke-width="1" fill="none" fill-rule="nonzero" transform="matrix(1 0 0 -1 0 300.874)" d="M 2.5 29.3151 L 427.697 29.3151 M 427.697 29.3151 L 427.697 2.6693 M 427.697 2.6693 L 2.5 2.6693 M 2.5 2.6693 L 2.5 29.3151 M 14.4055 29.3151 L 14.4055 2.6693 M 415.791 29.3151 L 415.791 2.6693 M 415.791 29.3151 L 415.791 300.874 M 14.4055 29.3149 L 14.4055 159.142 M 415.791 300.874 L 389.174 299.566 L 362.813 295.656 L 336.962 289.181 L 311.87 280.203 L 287.779 268.809 L 264.921 255.108 L 243.516 239.233 L 223.77 221.336 L 205.873 201.59 L 189.998 180.185 L 176.297 157.327 L 164.903 133.236 L 155.925 108.144 L 149.45 82.2935 L 145.54 55.9324 M 144.232 29.3149 L 143.607 42.0401 L 141.738 54.6429 L 138.642 67.0016 L 134.35 78.9975 L 128.903 90.5149 L 122.353 101.443 L 114.763 111.676 L 106.207 121.116 L 96.7668 129.673 L 86.5336 137.262 L 75.6056 143.812 L 64.0883 149.259 L 52.0925 153.551 L 39.7337 156.647 L 27.131 158.517 M 27.448 158.507 L 14.4055 159.142 M 145.61 55.7426 L 144.271 29.6333 " />
</svg>
