<?xml version="1.0" standalone="no"?>
<svg xmlns="http://www.w3.org/2000/svg" version="1.1">
<path stroke="black" stroke-width="1" fill="none" fill-rule="nonzero" transform="matrix(1 0 0 -1 0 35.7119)" d="M 2.01563 0.93652 C 2.01563 0.93652 61.0571 0.93652 61.0571 0.93652 M 62.2436 1.97949 C 62.2436 1.97949 62.2436 33.5752 62.2436 33.5752 M 61.2358 34.7759 C 61.2358 34.7759 2.05029 34.7759 2.05029 34.7759 M 1.04395 33.5859 C 1.04395 33.5859 1.04395 2.17285 1.04395 2.17285 M 2.25586 1.375 C 2.25586 1.375 2.26758 1.51172 2.26758 1.51172 M 2.26758 1.51172 C 2.26758 1.51172 2.25586 1.64941 2.25586 1.64941 M 2.25586 1.64941 C 2.25586 1.64941 2.22021 1.7832 2.22021 1.7832 M 2.22021 1.7832 C 2.22021 1.7832 2.16162 1.9082 2.16162 1.9082 M 2.16162 1.9082 C 2.16162 1.9082 2.08252 2.02148 2.08252 2.02148 M 2.08252 2.02148 C 2.08252 2.02148 1.98486 2.11914 1.98486 2.11914 M 1.98486 2.11914 C 1.98486 2.11914 1.87158 2.19824 1.87158 2.19824 M 1.87158 2.19824 C 1.87158 2.19824 1.74658 2.25586 1.74658 2.25586 M 1.74658 2.25586 C 1.74658 2.25586 1.61328 2.29199 1.61328 2.29199 M 1.61328 2.29199 C 1.61328 2.29199 1.47559 2.30371 1.47559 2.30371 M 1.47559 2.30371 C 1.47559 2.30371 1.33838 2.29199 1.33838 2.29199 M 1.33838 2.29199 C 1.33838 2.29199 1.20508 2.25586 1.20508 2.25586 M 1.20508 2.25586 C 1.20508 2.25586 1.07959 2.19824 1.07959 2.19824 M 1.07959 2.19824 C 1.07959 2.19824 0.9668 2.11914 0.9668 2.11914 M 0.9668 2.11914 C 0.9668 2.11914 0.86914 2.02148 0.86914 2.02148 M 0.86914 2.02148 C 0.86914 2.02148 0.79004 1.9082 0.79004 1.9082 M 0.79004 1.9082 C 0.79004 1.9082 0.73145 1.7832 0.73145 1.7832 M 0.73145 1.7832 C 0.73145 1.7832 0.6958 1.64941 0.6958 1.64941 M 0.6958 1.64941 C 0.6958 1.64941 0.68359 1.51172 0.68359 1.51172 M 0.68359 1.51172 C 0.68359 1.51172 0.6958 1.375 0.6958 1.375 M 0.6958 1.375 C 0.6958 1.375 0.73145 1.24121 0.73145 1.24121 M 0.73145 1.24121 C 0.73145 1.24121 0.79004 1.11621 0.79004 1.11621 M 0.79004 1.11621 C 0.79004 1.11621 0.86914 1.00293 0.86914 1.00293 M 0.86914 1.00293 C 0.86914 1.00293 0.9668 0.90527 0.9668 0.90527 M 0.9668 0.90527 C 0.9668 0.90527 1.07959 0.82617 1.07959 0.82617 M 1.07959 0.82617 C 1.07959 0.82617 1.20508 0.76758 1.20508 0.76758 M 1.20508 0.76758 C 1.20508 0.76758 1.33838 0.73242 1.33838 0.73242 M 1.33838 0.73242 C 1.33838 0.73242 1.47559 0.71973 1.47559 0.71973 M 1.47559 0.71973 C 1.47559 0.71973 1.61328 0.73242 1.61328 0.73242 M 1.61328 0.73242 C 1.61328 0.73242 1.74658 0.76758 1.74658 0.76758 M 1.74658 0.76758 C 1.74658 0.76758 1.87158 0.82617 1.87158 0.82617 M 1.87158 0.82617 C 1.87158 0.82617 1.98486 0.90527 1.98486 0.90527 M 1.98486 0.90527 C 1.98486 0.90527 2.08252 1.00293 2.08252 1.00293 M 2.08252 1.00293 C 2.08252 1.00293 2.16162 1.11621 2.16162 1.11621 M 2.16162 1.11621 C 2.16162 1.11621 2.22021 1.24121 2.22021 1.24121 M 2.22021 1.24121 C 2.22021 1.24121 2.25586 1.375 2.25586 1.375 M 2.21973 34.1343 C 2.21973 34.1343 2.23193 34.272 2.23193 34.272 M 2.23193 34.272 C 2.23193 34.272 2.21973 34.4097 2.21973 34.4097 M 2.21973 34.4097 C 2.21973 34.4097 2.18408 34.543 2.18408 34.543 M 2.18408 34.543 C 2.18408 34.543 2.12549 34.668 2.12549 34.668 M 2.12549 34.668 C 2.12549 34.668 2.04639 34.7812 2.04639 34.7812 M 2.04639 34.7812 C 2.04639 34.7812 1.94873 34.8789 1.94873 34.8789 M 1.94873 34.8789 C 1.94873 34.8789 1.83594 34.958 1.83594 34.958 M 1.83594 34.958 C 1.83594 34.958 1.71045 35.0161 1.71045 35.0161 M 1.71045 35.0161 C 1.71045 35.0161 1.57715 35.0522 1.57715 35.0522 M 1.57715 35.0522 C 1.57715 35.0522 1.43994 35.064 1.43994 35.064 M 1.43994 35.064 C 1.43994 35.064 1.30225 35.0522 1.30225 35.0522 M 1.30225 35.0522 C 1.30225 35.0522 1.16895 35.0161 1.16895 35.0161 M 1.16895 35.0161 C 1.16895 35.0161 1.04395 34.958 1.04395 34.958 M 1.04395 34.958 C 1.04395 34.958 0.93066 34.8789 0.93066 34.8789 M 0.93066 34.8789 C 0.93066 34.8789 0.83301 34.7812 0.83301 34.7812 M 0.83301 34.7812 C 0.83301 34.7812 0.75391 34.668 0.75391 34.668 M 0.75391 34.668 C 0.75391 34.668 0.69531 34.543 0.69531 34.543 M 0.69531 34.543 C 0.69531 34.543 0.65967 34.4097 0.65967 34.4097 M 0.65967 34.4097 C 0.65967 34.4097 0.64795 34.272 0.64795 34.272 M 0.64795 34.272 C 0.64795 34.272 0.65967 34.1343 0.65967 34.1343 M 0.65967 34.1343 C 0.65967 34.1343 0.69531 34.001 0.69531 34.001 M 0.69531 34.001 C 0.69531 34.001 0.75391 33.876 0.75391 33.876 M 0.75391 33.876 C 0.75391 33.876 0.83301 33.7627 0.83301 33.7627 M 0.83301 33.7627 C 0.83301 33.7627 0.93066 33.6655 0.93066 33.6655 M 0.93066 33.6655 C 0.93066 33.6655 1.04395 33.5859 1.04395 33.5859 M 1.04395 33.5859 C 1.04395 33.5859 1.16895 33.5278 1.16895 33.5278 M 1.16895 33.5278 C 1.16895 33.5278 1.30225 33.4922 1.30225 33.4922 M 1.30225 33.4922 C 1.30225 33.4922 1.43994 33.48 1.43994 33.48 M 1.43994 33.48 C 1.43994 33.48 1.57715 33.4922 1.57715 33.4922 M 1.57715 33.4922 C 1.57715 33.4922 1.71045 33.5278 1.71045 33.5278 M 1.71045 33.5278 C 1.71045 33.5278 1.83594 33.5859 1.83594 33.5859 M 1.83594 33.5859 C 1.83594 33.5859 1.94873 33.6655 1.94873 33.6655 M 1.94873 33.6655 C 1.94873 33.6655 2.04639 33.7627 2.04639 33.7627 M 2.04639 33.7627 C 2.04639 33.7627 2.12549 33.876 2.12549 33.876 M 2.12549 33.876 C 2.12549 33.876 2.18408 34.001 2.18408 34.001 M 2.18408 34.001 C 2.18408 34.001 2.21973 34.1343 2.21973 34.1343 M 62.4478 1.30273 C 62.4478 1.30273 62.4595 1.44043 62.4595 1.44043 M 62.4595 1.44043 C 62.4595 1.44043 62.4478 1.57715 62.4478 1.57715 M 62.4478 1.57715 C 62.4478 1.57715 62.4116 1.71094 62.4116 1.71094 M 62.4116 1.71094 C 62.4116 1.71094 62.354 1.83594 62.354 1.83594 M 62.354 1.83594 C 62.354 1.83594 62.2749 1.94922 62.2749 1.94922 M 62.2749 1.94922 C 62.2749 1.94922 62.1772 2.04688 62.1772 2.04688 M 62.1772 2.04688 C 62.1772 2.04688 62.064 2.12598 62.064 2.12598 M 62.064 2.12598 C 62.064 2.12598 61.939 2.18457 61.939 2.18457 M 61.939 2.18457 C 61.939 2.18457 61.8052 2.21973 61.8052 2.21973 M 61.8052 2.21973 C 61.8052 2.21973 61.6675 2.23242 61.6675 2.23242 M 61.6675 2.23242 C 61.6675 2.23242 61.5308 2.21973 61.5308 2.21973 M 61.5308 2.21973 C 61.5308 2.21973 61.397 2.18457 61.397 2.18457 M 61.397 2.18457 C 61.397 2.18457 61.272 2.12598 61.272 2.12598 M 61.272 2.12598 C 61.272 2.12598 61.1587 2.04688 61.1587 2.04688 M 61.1587 2.04688 C 61.1587 2.04688 61.061 1.94922 61.061 1.94922 M 61.061 1.94922 C 61.061 1.94922 60.9819 1.83594 60.9819 1.83594 M 60.9819 1.83594 C 60.9819 1.83594 60.9233 1.71094 60.9233 1.71094 M 60.9233 1.71094 C 60.9233 1.71094 60.8882 1.57715 60.8882 1.57715 M 60.8882 1.57715 C 60.8882 1.57715 60.8755 1.44043 60.8755 1.44043 M 60.8755 1.44043 C 60.8755 1.44043 60.8882 1.30273 60.8882 1.30273 M 60.8882 1.30273 C 60.8882 1.30273 60.9233 1.16895 60.9233 1.16895 M 60.9233 1.16895 C 60.9233 1.16895 60.9819 1.04395 60.9819 1.04395 M 60.9819 1.04395 C 60.9819 1.04395 61.061 0.93066 61.061 0.93066 M 61.061 0.93066 C 61.061 0.93066 61.1587 0.83301 61.1587 0.83301 M 61.1587 0.83301 C 61.1587 0.83301 61.272 0.75391 61.272 0.75391 M 61.272 0.75391 C 61.272 0.75391 61.397 0.69531 61.397 0.69531 M 61.397 0.69531 C 61.397 0.69531 61.5308 0.66016 61.5308 0.66016 M 61.5308 0.66016 C 61.5308 0.66016 61.6675 0.64844 61.6675 0.64844 M 61.6675 0.64844 C 61.6675 0.64844 61.8052 0.66016 61.8052 0.66016 M 61.8052 0.66016 C 61.8052 0.66016 61.939 0.69531 61.939 0.69531 M 61.939 0.69531 C 61.939 0.69531 62.064 0.75391 62.064 0.75391 M 62.064 0.75391 C 62.064 0.75391 62.1772 0.83301 62.1772 0.83301 M 62.1772 0.83301 C 62.1772 0.83301 62.2749 0.93066 62.2749 0.93066 M 62.2749 0.93066 C 62.2749 0.93066 62.354 1.04395 62.354 1.04395 M 62.354 1.04395 C 62.354 1.04395 62.4116 1.16895 62.4116 1.16895 M 62.4116 1.16895 C 62.4116 1.16895 62.4478 1.30273 62.4478 1.30273 M 62.5913 34.0986 C 62.5913 34.0986 62.604 34.2358 62.604 34.2358 M 62.604 34.2358 C 62.604 34.2358 62.5913 34.3735 62.5913 34.3735 M 62.5913 34.3735 C 62.5913 34.3735 62.5561 34.5068 62.5561 34.5068 M 62.5561 34.5068 C 62.5561 34.5068 62.4976 34.6318 62.4976 34.6318 M 62.4976 34.6318 C 62.4976 34.6318 62.4185 34.7451 62.4185 34.7451 M 62.4185 34.7451 C 62.4185 34.7451 62.3208 34.8428 62.3208 34.8428 M 62.3208 34.8428 C 62.3208 34.8428 62.2075 34.9219 62.2075 34.9219 M 62.2075 34.9219 C 62.2075 34.9219 62.0825 34.9805 62.0825 34.9805 M 62.0825 34.9805 C 62.0825 34.9805 61.9497 35.0161 61.9497 35.0161 M 61.9497 35.0161 C 61.9497 35.0161 61.812 35.0278 61.812 35.0278 M 61.812 35.0278 C 61.812 35.0278 61.6743 35.0161 61.6743 35.0161 M 61.6743 35.0161 C 61.6743 35.0161 61.5405 34.9805 61.5405 34.9805 M 61.5405 34.9805 C 61.5405 34.9805 61.4155 34.9219 61.4155 34.9219 M 61.4155 34.9219 C 61.4155 34.9219 61.3022 34.8428 61.3022 34.8428 M 61.3022 34.8428 C 61.3022 34.8428 61.2056 34.7451 61.2056 34.7451 M 61.2056 34.7451 C 61.2056 34.7451 61.1255 34.6318 61.1255 34.6318 M 61.1255 34.6318 C 61.1255 34.6318 61.0679 34.5068 61.0679 34.5068 M 61.0679 34.5068 C 61.0679 34.5068 61.0317 34.3735 61.0317 34.3735 M 61.0317 34.3735 C 61.0317 34.3735 61.02 34.2358 61.02 34.2358 M 61.02 34.2358 C 61.02 34.2358 61.0317 34.0986 61.0317 34.0986 M 61.0317 34.0986 C 61.0317 34.0986 61.0679 33.9653 61.0679 33.9653 M 61.0679 33.9653 C 61.0679 33.9653 61.1255 33.8398 61.1255 33.8398 M 61.1255 33.8398 C 61.1255 33.8398 61.2056 33.7271 61.2056 33.7271 M 61.2056 33.7271 C 61.2056 33.7271 61.3022 33.6294 61.3022 33.6294 M 61.3022 33.6294 C 61.3022 33.6294 61.4155 33.5503 61.4155 33.5503 M 61.4155 33.5503 C 61.4155 33.5503 61.5405 33.4917 61.5405 33.4917 M 61.5405 33.4917 C 61.5405 33.4917 61.6743 33.4561 61.6743 33.4561 M 61.6743 33.4561 C 61.6743 33.4561 61.812 33.4438 61.812 33.4438 M 61.812 33.4438 C 61.812 33.4438 61.9497 33.4561 61.9497 33.4561 M 61.9497 33.4561 C 61.9497 33.4561 62.0825 33.4917 62.0825 33.4917 M 62.0825 33.4917 C 62.0825 33.4917 62.2075 33.5503 62.2075 33.5503 M 62.2075 33.5503 C 62.2075 33.5503 62.3208 33.6294 62.3208 33.6294 M 62.3208 33.6294 C 62.3208 33.6294 62.4185 33.7271 62.4185 33.7271 M 62.4185 33.7271 C 62.4185 33.7271 62.4976 33.8398 62.4976 33.8398 M 62.4976 33.8398 C 62.4976 33.8398 62.5561 33.9653 62.5561 33.9653 M 62.5561 33.9653 C 62.5561 33.9653 62.5913 34.0986 62.5913 34.0986 M 0.9834 2.86523 C 0.9834 2.86523 0.75586 2.75879 0.75586 2.75879 M 0.75586 2.75879 C 0.75586 2.75879 0.55029 2.61523 0.55029 2.61523 M 0.55029 2.61523 C 0.55029 2.61523 0.37256 2.4375 0.37256 2.4375 M 0.37256 2.4375 C 0.37256 2.4375 0.22852 2.23242 0.22852 2.23242 M 0.22852 2.23242 C 0.22852 2.23242 0.12256 2.00488 0.12256 2.00488 M 0.12256 2.00488 C 0.12256 2.00488 0.05762 1.76172 0.05762 1.76172 M 0.05762 1.76172 C 0.05762 1.76172 0.03564 1.51172 0.03564 1.51172 M 0.03564 1.51172 C 0.03564 1.51172 0.05762 1.26172 0.05762 1.26172 M 0.05762 1.26172 C 0.05762 1.26172 0.12256 1.01953 0.12256 1.01953 M 0.12256 1.01953 C 0.12256 1.01953 0.22852 0.79199 0.22852 0.79199 M 0.22852 0.79199 C 0.22852 0.79199 0.37256 0.58594 0.37256 0.58594 M 0.37256 0.58594 C 0.37256 0.58594 0.55029 0.40918 0.55029 0.40918 M 0.55029 0.40918 C 0.55029 0.40918 0.75586 0.26465 0.75586 0.26465 M 0.75586 0.26465 C 0.75586 0.26465 0.9834 0.15918 0.9834 0.15918 M 0.9834 0.15918 C 0.9834 0.15918 1.22559 0.09375 1.22559 0.09375 M 1.22559 0.09375 C 1.22559 0.09375 1.47559 0.07227 1.47559 0.07227 M 1.47559 0.07227 C 1.47559 0.07227 1.72607 0.09375 1.72607 0.09375 M 1.72607 0.09375 C 1.72607 0.09375 1.96826 0.15918 1.96826 0.15918 M 1.96826 0.15918 C 1.96826 0.15918 2.1958 0.26465 2.1958 0.26465 M 2.1958 0.26465 C 2.1958 0.26465 2.40137 0.40918 2.40137 0.40918 M 2.40137 0.40918 C 2.40137 0.40918 2.5791 0.58594 2.5791 0.58594 M 2.5791 0.58594 C 2.5791 0.58594 2.72314 0.79199 2.72314 0.79199 M 2.72314 0.79199 C 2.72314 0.79199 2.79004 0.93652 2.79004 0.93652 M 63.0854 1.19043 C 63.0854 1.19043 63.1079 1.44043 63.1079 1.44043 M 63.1079 1.44043 C 63.1079 1.44043 63.0854 1.69043 63.0854 1.69043 M 63.0854 1.69043 C 63.0854 1.69043 63.021 1.93262 63.021 1.93262 M 63.021 1.93262 C 63.021 1.93262 62.9145 2.16016 62.9145 2.16016 M 62.9145 2.16016 C 62.9145 2.16016 62.771 2.36523 62.771 2.36523 M 62.771 2.36523 C 62.771 2.36523 62.5933 2.54297 62.5933 2.54297 M 62.5933 2.54297 C 62.5933 2.54297 62.3882 2.6875 62.3882 2.6875 M 62.3882 2.6875 C 62.3882 2.6875 62.2436 2.75391 62.2436 2.75391 M 60.3198 0.93652 C 60.3198 0.93652 60.4204 0.71973 60.4204 0.71973 M 60.4204 0.71973 C 60.4204 0.71973 60.5649 0.51465 60.5649 0.51465 M 60.5649 0.51465 C 60.5649 0.51465 60.7417 0.33691 60.7417 0.33691 M 60.7417 0.33691 C 60.7417 0.33691 60.9478 0.19336 60.9478 0.19336 M 60.9478 0.19336 C 60.9478 0.19336 61.1753 0.08691 61.1753 0.08691 M 61.1753 0.08691 C 61.1753 0.08691 61.4175 0.02148 61.4175 0.02148 M 61.4175 0.02148 C 61.4175 0.02148 61.6675 0 61.6675 0 M 61.6675 0 C 61.6675 0 61.9175 0.02148 61.9175 0.02148 M 61.9175 0.02148 C 61.9175 0.02148 62.1606 0.08691 62.1606 0.08691 M 62.1606 0.08691 C 62.1606 0.08691 62.3882 0.19336 62.3882 0.19336 M 62.3882 0.19336 C 62.3882 0.19336 62.5933 0.33691 62.5933 0.33691 M 62.5933 0.33691 C 62.5933 0.33691 62.771 0.51465 62.771 0.51465 M 62.771 0.51465 C 62.771 0.51465 62.9145 0.71973 62.9145 0.71973 M 62.9145 0.71973 C 62.9145 0.71973 63.021 0.94727 63.021 0.94727 M 63.021 0.94727 C 63.021 0.94727 63.0854 1.19043 63.0854 1.19043 M 2.7876 34.7759 C 2.7876 34.7759 2.68701 34.9922 2.68701 34.9922 M 2.68701 34.9922 C 2.68701 34.9922 2.54297 35.1978 2.54297 35.1978 M 2.54297 35.1978 C 2.54297 35.1978 2.36523 35.375 2.36523 35.375 M 2.36523 35.375 C 2.36523 35.375 2.15967 35.519 2.15967 35.519 M 2.15967 35.519 C 2.15967 35.519 1.93213 35.625 1.93213 35.625 M 1.93213 35.625 C 1.93213 35.625 1.68994 35.6899 1.68994 35.6899 M 1.68994 35.6899 C 1.68994 35.6899 1.43994 35.7119 1.43994 35.7119 M 1.43994 35.7119 C 1.43994 35.7119 1.18994 35.6899 1.18994 35.6899 M 1.18994 35.6899 C 1.18994 35.6899 0.94727 35.625 0.94727 35.625 M 0.94727 35.625 C 0.94727 35.625 0.71973 35.519 0.71973 35.519 M 0.71973 35.519 C 0.71973 35.519 0.51416 35.375 0.51416 35.375 M 0.51416 35.375 C 0.51416 35.375 0.33691 35.1978 0.33691 35.1978 M 0.33691 35.1978 C 0.33691 35.1978 0.19287 34.9922 0.19287 34.9922 M 0.19287 34.9922 C 0.19287 34.9922 0.08643 34.7646 0.08643 34.7646 M 0.08643 34.7646 C 0.08643 34.7646 0.02148 34.522 0.02148 34.522 M 0.02148 34.522 C 0.02148 34.522 0 34.272 0 34.272 M 0 34.272 C 0 34.272 0.02148 34.022 0.02148 34.022 M 0.02148 34.022 C 0.02148 34.022 0.08643 33.7798 0.08643 33.7798 M 0.08643 33.7798 C 0.08643 33.7798 0.19287 33.5522 0.19287 33.5522 M 0.19287 33.5522 C 0.19287 33.5522 0.33691 33.3462 0.33691 33.3462 M 0.33691 33.3462 C 0.33691 33.3462 0.51416 33.1689 0.51416 33.1689 M 0.51416 33.1689 C 0.51416 33.1689 0.71973 33.0249 0.71973 33.0249 M 0.71973 33.0249 C 0.71973 33.0249 0.94727 32.9189 0.94727 32.9189 M 0.94727 32.9189 C 0.94727 32.9189 1.04395 32.8931 1.04395 32.8931 M 63.23 33.9858 C 63.23 33.9858 63.2515 34.2358 63.2515 34.2358 M 63.2515 34.2358 C 63.2515 34.2358 63.23 34.4863 63.23 34.4863 M 63.23 34.4863 C 63.23 34.4863 63.1645 34.7285 63.1645 34.7285 M 63.1645 34.7285 C 63.1645 34.7285 63.0591 34.9561 63.0591 34.9561 M 63.0591 34.9561 C 63.0591 34.9561 62.9145 35.1616 62.9145 35.1616 M 62.9145 35.1616 C 62.9145 35.1616 62.7378 35.3394 62.7378 35.3394 M 62.7378 35.3394 C 62.7378 35.3394 62.5317 35.4829 62.5317 35.4829 M 62.5317 35.4829 C 62.5317 35.4829 62.3042 35.5894 62.3042 35.5894 M 62.3042 35.5894 C 62.3042 35.5894 62.062 35.6543 62.062 35.6543 M 62.062 35.6543 C 62.062 35.6543 61.812 35.6763 61.812 35.6763 M 61.812 35.6763 C 61.812 35.6763 61.562 35.6543 61.562 35.6543 M 61.562 35.6543 C 61.562 35.6543 61.3188 35.5894 61.3188 35.5894 M 61.3188 35.5894 C 61.3188 35.5894 61.0923 35.4829 61.0923 35.4829 M 61.0923 35.4829 C 61.0923 35.4829 60.8862 35.3394 60.8862 35.3394 M 60.8862 35.3394 C 60.8862 35.3394 60.7085 35.1616 60.7085 35.1616 M 60.7085 35.1616 C 60.7085 35.1616 60.5649 34.9561 60.5649 34.9561 M 60.5649 34.9561 C 60.5649 34.9561 60.481 34.7759 60.481 34.7759 M 62.3042 32.8828 C 62.3042 32.8828 62.5317 32.9888 62.5317 32.9888 M 62.5317 32.9888 C 62.5317 32.9888 62.7378 33.1328 62.7378 33.1328 M 62.7378 33.1328 C 62.7378 33.1328 62.9145 33.3106 62.9145 33.3106 M 62.9145 33.3106 C 62.9145 33.3106 63.0591 33.5161 63.0591 33.5161 M 63.0591 33.5161 C 63.0591 33.5161 63.1645 33.7436 63.1645 33.7436 M 63.1645 33.7436 C 63.1645 33.7436 63.23 33.9858 63.23 33.9858 " />
</svg>
