<?xml version="1.0" standalone="no"?>
<svg xmlns="http://www.w3.org/2000/svg" version="1.1">
<path stroke="black" stroke-width="1" fill="none" fill-rule="nonzero" transform="matrix(1 0 0 -1 0 593.601)" d="M 456.944 478.892 L 448.357 478.275 M 341.212 471.091 L 232.493 478.903 M 456.944 478.892 L 463.048 479.331 C 469.849 479.819 475.117 485.478 475.117 492.297 L 475.117 574.406 C 475.117 581.317 469.71 587.019 462.809 587.388 L 347.454 593.531 C 345.684 593.625 343.909 593.625 342.137 593.531 L 226.783 587.388 C 219.882 587.019 214.473 581.317 214.473 574.406 L 214.473 492.297 C 214.473 485.478 219.742 479.819 226.542 479.331 L 232.492 478.902 M 348.379 471.091 L 448.357 478.275 M 341.212 471.091 L 232.493 478.903 M 232.493 478.903 C 217.486 434.306 227.964 367.178 227.964 367.178 L 227.974 367.178 C 234.742 298.01 284.459 244.308 344.796 244.308 C 406.12 244.308 456.474 299.783 461.915 370.587 C 463.775 384.644 469.927 440.207 456.945 478.892 M 348.379 471.091 L 456.945 478.892 M 348.379 471.091 L 448.357 478.275 M 341.212 471.091 L 241.076 478.286 C 229.855 434.835 238.58 374.61 238.58 374.61 L 238.589 374.61 C 244.742 306.888 289.937 254.308 344.787 254.308 C 400.535 254.308 446.31 308.623 451.256 377.948 C 452.863 391.032 457.996 440.848 448.356 478.275 M 348.379 471.091 C 345.993 470.92 343.598 470.92 341.212 471.091 M 354.983 532.282 C 354.983 538.164 350.215 542.932 344.333 542.932 C 338.451 542.932 333.683 538.164 333.683 532.282 C 333.683 526.4 338.451 521.632 344.333 521.632 C 350.215 521.632 354.983 526.4 354.983 532.282 Z M 354.983 532.282 " />
</svg>
