<?xml version="1.0" standalone="no"?>
<svg xmlns="http://www.w3.org/2000/svg" version="1.1">
<path stroke="black" stroke-width="1" fill="none" fill-rule="nonzero" transform="matrix(1 0 0 -1 0 623.828)" d="M 518.292 510.083 L 241 510.083 C 233.3 510.083 227 516.383 227 524.083 L 227 485.355 C 227 480.835 228.512 476.651 231.061 473.288 C 231.189 473.119 231.324 472.956 231.458 472.791 C 231.664 472.536 231.877 472.286 232.095 472.042 C 232.275 471.84 232.458 471.642 232.647 471.447 C 232.896 471.189 233.153 470.938 233.416 470.694 C 233.563 470.558 233.707 470.422 233.858 470.29 C 234.195 469.996 234.543 469.714 234.9 469.442 C 235.048 469.33 235.197 469.22 235.348 469.112 C 235.728 468.838 236.115 468.574 236.515 468.328 C 236.641 468.25 236.769 468.179 236.896 468.104 C 237.294 467.871 237.698 467.648 238.113 467.442 C 238.205 467.396 238.295 467.35 238.388 467.306 C 238.845 467.087 239.315 466.889 239.791 466.705 C 239.898 466.663 240.003 466.62 240.111 466.58 C 240.608 466.398 241.114 466.237 241.629 466.094 C 241.74 466.063 241.851 466.033 241.962 466.004 C 242.491 465.867 243.028 465.748 243.573 465.653 C 243.659 465.639 243.746 465.627 243.833 465.614 C 244.414 465.521 245.003 465.446 245.601 465.404 L 309.662 460.909 C 356.261 457.64 403.031 457.64 449.63 460.909 L 513.692 465.404 C 514.29 465.446 514.878 465.521 515.46 465.614 C 515.546 465.627 515.633 465.639 515.719 465.653 C 516.265 465.748 516.801 465.867 517.33 466.005 C 517.442 466.033 517.552 466.063 517.663 466.094 C 518.177 466.237 518.684 466.398 519.18 466.58 C 519.289 466.62 519.395 466.663 519.502 466.705 C 519.978 466.889 520.446 467.087 520.903 467.305 C 520.996 467.35 521.088 467.397 521.18 467.442 C 521.594 467.648 521.998 467.871 522.396 468.104 C 522.523 468.179 522.652 468.251 522.777 468.328 C 523.177 468.575 523.564 468.838 523.944 469.111 C 524.096 469.22 524.245 469.33 524.393 469.443 C 524.75 469.714 525.097 469.996 525.434 470.29 C 525.585 470.422 525.73 470.559 525.877 470.695 C 526.139 470.938 526.394 471.188 526.643 471.444 C 526.833 471.64 527.017 471.84 527.199 472.044 C 527.417 472.288 527.628 472.536 527.834 472.79 C 527.967 472.955 528.103 473.118 528.232 473.288 C 530.781 476.652 532.292 480.835 532.292 485.355 L 532.292 524.083 C 532.292 516.383 525.992 510.083 518.292 510.083 Z M 227 465.271 C 227 468.548 228.605 471.462 231.06 473.288 C 231.06 473.288 231.06 473.288 231.061 473.288 C 228.511 476.652 227 480.835 227 485.355 L 227 465.271 Z M 532.292 465.271 L 532.292 485.355 C 532.292 480.835 530.781 476.652 528.232 473.289 C 530.687 471.462 532.292 468.548 532.292 465.271 Z M 227 524.083 C 227 516.383 233.3 510.083 241 510.083 L 518.292 510.083 C 525.992 510.083 532.292 516.383 532.292 524.083 L 532.292 531.457 L 532.292 590.303 L 532.292 609.828 C 532.292 617.528 525.992 623.828 518.292 623.828 L 241 623.828 C 233.3 623.828 227 617.528 227 609.828 L 227 591.333 L 227 531.457 L 227 524.083 Z M 158.513 561.919 C 155.732 546.003 154.333 529.876 154.333 513.718 L 154.333 264.398 C 154.333 248.495 155.688 232.621 158.383 216.947 L 160.333 205.607 L 160.333 572.333 L 158.513 561.919 Z M 227 485.355 L 227 524.083 L 227 531.457 L 227 591.333 C 227 592.99 225.657 594.333 224 594.333 L 163.333 594.333 C 161.676 594.333 160.333 592.99 160.333 591.333 L 160.333 572.333 L 160.333 205.607 L 160.333 188.667 C 160.333 187.01 161.676 185.667 163.333 185.667 L 224 185.667 C 225.657 185.667 227 187.01 227 188.667 L 227 197 L 227 465.271 L 227 485.355 Z M 595.958 593.304 L 535.291 593.304 C 533.635 593.304 532.291 591.961 532.291 590.304 L 532.291 531.457 L 532.291 524.084 L 532.291 485.355 L 532.291 465.271 L 532.291 197 L 532.291 187.637 C 532.291 185.98 533.635 184.637 535.291 184.637 L 595.958 184.637 C 597.615 184.637 598.958 185.98 598.958 187.637 L 598.958 590.304 C 598.958 591.961 597.615 593.304 595.958 593.304 Z M 528.231 473.288 C 528.102 473.118 527.967 472.955 527.833 472.79 C 527.628 472.536 527.416 472.288 527.199 472.044 C 527.017 471.84 526.832 471.64 526.642 471.444 C 526.393 471.188 526.138 470.938 525.876 470.695 C 525.729 470.559 525.584 470.422 525.434 470.29 C 525.097 469.996 524.749 469.714 524.393 469.443 C 524.245 469.33 524.095 469.22 523.944 469.111 C 523.564 468.838 523.176 468.575 522.777 468.328 C 522.651 468.251 522.522 468.179 522.395 468.104 C 521.998 467.871 521.594 467.648 521.179 467.442 C 521.087 467.397 520.996 467.35 520.902 467.305 C 520.445 467.087 519.977 466.889 519.502 466.705 C 519.394 466.663 519.288 466.62 519.18 466.58 C 518.683 466.398 518.177 466.237 517.662 466.094 C 517.552 466.063 517.441 466.033 517.33 466.004 C 516.801 465.867 516.264 465.748 515.718 465.653 C 515.632 465.639 515.545 465.627 515.459 465.614 C 514.877 465.521 514.289 465.446 513.691 465.404 L 449.629 460.909 C 403.031 457.64 356.26 457.64 309.662 460.909 L 245.6 465.404 C 245.002 465.446 244.414 465.521 243.832 465.614 C 243.746 465.627 243.659 465.639 243.573 465.653 C 243.027 465.748 242.49 465.867 241.961 466.004 C 241.85 466.033 241.739 466.063 241.628 466.094 C 241.114 466.237 240.607 466.398 240.111 466.58 C 240.003 466.62 239.897 466.663 239.79 466.705 C 239.314 466.889 238.845 467.087 238.387 467.306 C 238.295 467.35 238.204 467.396 238.112 467.442 C 237.697 467.648 237.293 467.871 236.895 468.104 C 236.768 468.179 236.64 468.25 236.515 468.328 C 236.115 468.574 235.727 468.838 235.347 469.112 C 235.196 469.22 235.047 469.33 234.899 469.442 C 234.542 469.714 234.194 469.996 233.857 470.29 C 233.707 470.422 233.562 470.558 233.415 470.694 C 233.152 470.938 232.896 471.189 232.646 471.447 C 232.458 471.642 232.275 471.84 232.094 472.042 C 231.876 472.286 231.663 472.536 231.457 472.791 C 231.324 472.956 231.188 473.119 231.06 473.288 C 231.06 473.288 231.06 473.288 231.06 473.288 C 228.605 471.461 227 468.548 227 465.27 L 227 197 C 227 172.25 247.25 152 272 152 L 487.291 152 C 512.041 152 532.291 172.25 532.291 197 L 532.291 465.27 C 532.291 468.548 530.686 471.461 528.231 473.288 Z M 600.778 560.889 L 598.958 571.303 L 598.958 204.577 L 600.908 215.917 C 603.603 231.591 604.958 247.465 604.958 263.368 L 604.958 512.688 C 604.958 528.846 603.559 544.973 600.778 560.889 Z M 600.778 560.889 " />
</svg>
