<?xml version="1.0" standalone="no"?>
<svg xmlns="http://www.w3.org/2000/svg" version="1.1">
<path stroke="black" stroke-width="1" fill="none" fill-rule="nonzero" transform="matrix(1 0 0 -1 0 421.197)" d="M 4 3.1968 L 4 212.197 L 4.0816 364.785 L 4.3261 367.892 L 4.7329 370.981 L 5.3008 374.046 L 6.0284 377.076 L 6.9135 380.064 L 7.9538 383.002 L 9.1464 385.881 L 10.4881 388.694 L 11.9752 391.433 L 13.6035 394.09 L 15.3688 396.659 L 17.266 399.131 L 19.29 401.501 L 21.4352 403.762 L 21.4352 403.762 L 23.6958 405.907 L 26.0657 407.931 L 28.5381 409.828 L 31.1065 411.593 L 33.7638 413.222 L 36.5026 414.709 L 39.3155 416.05 L 42.1948 417.243 L 45.1325 418.283 L 48.1207 419.168 L 51.1511 419.896 L 54.2154 420.464 L 57.3052 420.871 L 213 421.197 L 317.5 421.197 L 365.588 421.115 L 368.695 420.871 L 371.785 420.464 L 374.849 419.896 L 377.879 419.168 L 380.867 418.283 L 383.805 417.243 L 386.684 416.05 L 389.497 414.709 L 392.236 413.222 L 394.893 411.593 L 397.462 409.828 L 399.934 407.931 L 402.304 405.907 L 404.565 403.762 L 404.565 403.762 L 406.71 401.501 L 408.734 399.131 L 410.631 396.659 L 412.396 394.09 L 414.025 391.433 L 415.512 388.694 L 416.854 385.881 L 418.046 383.002 L 419.086 380.064 L 419.972 377.076 L 420.699 374.046 L 421.267 370.981 L 421.674 367.892 L 422 212.197 L 422 3.1968 L 362.286 3.1968 L 362.286 182.34 L 362.204 305.07 L 361.96 308.177 L 361.553 311.267 L 360.985 314.331 L 360.257 317.362 L 359.372 320.35 L 358.332 323.288 L 357.139 326.167 L 355.798 328.98 L 354.311 331.719 L 352.682 334.376 L 350.917 336.944 L 349.02 339.417 L 346.996 341.787 L 344.851 344.047 L 344.851 344.047 L 342.59 346.193 L 340.22 348.217 L 337.748 350.114 L 335.179 351.879 L 332.522 353.507 L 329.783 354.994 L 326.97 356.336 L 324.091 357.529 L 321.153 358.569 L 318.165 359.454 L 315.135 360.182 L 312.07 360.75 L 308.98 361.156 L 213 361.483 L 138.357 361.483 L 120.126 361.401 L 117.02 361.156 L 113.93 360.75 L 110.865 360.182 L 107.835 359.454 L 104.847 358.569 L 101.909 357.529 L 99.0297 356.336 L 96.2168 354.994 L 93.478 353.507 L 90.8208 351.879 L 88.2524 350.114 L 85.7799 348.217 L 83.4101 346.193 L 81.1494 344.047 L 81.1494 344.047 L 79.0042 341.787 L 76.9802 339.417 L 75.083 336.944 L 73.3178 334.376 L 71.6894 331.719 L 70.2023 328.98 L 68.8607 326.167 L 67.668 323.288 L 66.6277 320.35 L 65.7426 317.362 L 65.015 314.331 L 64.4471 311.267 L 64.0403 308.177 L 63.7142 182.34 L 63.7142 3.1968 L 4 3.1968 M 63.7142 301.768 L 362.286 301.768 M 63.7142 256.983 L 362.286 256.983 M 70.8661 28.3466 L 362 28.197 M 71.9999 28.197 L 63.9999 28.197 " />
</svg>
