<?xml version="1.0" standalone="no"?>
<svg xmlns="http://www.w3.org/2000/svg" version="1.1">
<path stroke="black" stroke-width="1" fill="none" fill-rule="nonzero" transform="matrix(1 0 0 -1 0 520.334)" d="M 766.354 327.532 L 60.2274 327.532 C 59.1234 327.532 58.2274 328.427 58.2274 329.532 L 58.2274 377.389 L 768.354 377.389 L 768.354 329.532 C 768.354 328.427 767.459 327.532 766.354 327.532 Z M 768.354 377.389 L 763.532 382.889 C 760.684 386.138 756.573 388 752.253 388 L 74.3284 388 C 70.0084 388 65.8984 386.138 63.0494 382.889 L 58.2274 377.389 L 768.354 377.389 Z M 90.2911 388 L 736.291 388 L 704.076 416.807 C 703.892 416.971 703.655 417.061 703.409 417.061 L 123.173 417.061 C 122.927 417.061 122.69 416.971 122.506 416.807 L 90.2911 388 Z M 474.291 448.896 L 352.291 448.896 C 351.186 448.896 350.291 448.001 350.291 446.896 L 350.291 417.624 L 476.291 417.624 L 476.291 446.896 C 476.291 448.001 475.396 448.896 474.291 448.896 Z M 205.667 417.624 L 619.667 417.624 L 619.667 517.334 C 619.667 518.99 618.324 520.334 616.667 520.334 L 208.667 520.334 C 207.01 520.334 205.667 518.99 205.667 517.334 L 205.667 417.624 Z M 208.667 304.602 L 616.667 304.602 C 618.324 304.602 619.667 305.945 619.667 307.602 L 619.667 327.532 L 205.667 327.532 L 205.667 307.602 C 205.667 305.945 207.01 304.602 208.667 304.602 Z M 208.667 304.602 " />
</svg>
