<?xml version="1.0" standalone="no"?>
<svg xmlns="http://www.w3.org/2000/svg" version="1.1">
<path stroke="black" stroke-width="1" fill="none" fill-rule="nonzero" transform="matrix(1 0 0 -1 0 136.981)" d="M 71.3662 3.752 C 108.04 3.752 137.98 33.692 137.98 70.366 C 137.98 107.04 108.04 136.981 71.3662 136.981 C 34.6932 136.981 4.75219 107.04 4.75219 70.366 C 4.75219 33.692 34.6932 3.752 71.3662 3.752 Z M 71.3662 10.3066 C 104.407 10.3066 131.426 37.3256 131.426 70.3666 C 131.426 103.408 104.407 130.426 71.3662 130.426 C 38.3252 130.426 11.3072 103.408 11.3072 70.3666 C 11.3072 37.3256 38.3252 10.3066 71.3662 10.3066 Z M 54.4473 106.596 C 50.1953 105.267 47.0943 101.369 47.0943 96.6752 C 47.0943 90.9172 51.7893 86.2222 57.5473 86.2222 C 58.7873 86.2222 60.0283 86.4882 61.1793 86.8432 C 61.1793 81.1732 65.8743 76.4782 71.5433 76.4782 C 77.3013 76.4782 81.9963 81.0842 81.9963 86.8432 C 82.9703 86.4882 84.0333 86.3992 85.0083 86.3992 C 90.7653 86.3992 95.4613 91.0062 95.4613 96.7632 C 95.4613 101.458 92.3603 105.444 88.1083 106.773 C 89.4373 108.545 90.2343 110.671 90.2343 113.062 C 90.2343 118.821 85.5403 123.515 79.7823 123.515 C 76.2383 123.515 73.0503 121.743 71.1893 118.998 C 69.2403 121.478 66.3173 123.073 62.9513 123.073 C 57.1933 123.073 52.4983 118.378 52.4983 112.619 C 52.4983 110.405 53.2073 108.279 54.4473 106.596 Z M 81.0225 61.8623 C 76.8585 60.5333 73.7575 56.5473 73.7575 51.8513 C 73.7575 46.1823 78.4535 41.4883 84.2105 41.4883 C 85.4515 41.4883 86.6915 41.6653 87.8425 42.1073 C 87.8425 36.3503 92.5375 31.6553 98.2065 31.6553 C 103.965 31.6553 108.572 36.3503 108.66 42.0193 C 109.633 41.7543 110.609 41.5773 111.672 41.5773 C 117.43 41.5773 122.124 46.2723 122.124 52.0293 C 122.124 56.7243 119.023 60.7113 114.772 61.9503 C 116.101 63.7223 116.897 65.9373 116.897 68.2403 C 116.897 73.9973 112.202 78.6933 106.445 78.6933 C 102.902 78.6933 99.7125 76.9213 97.8525 74.1753 C 95.9045 76.6553 92.9805 78.2493 89.6145 78.2493 C 83.8565 78.2493 79.1615 73.5543 79.1615 67.7973 C 79.1615 65.5823 79.8705 63.5463 81.0225 61.8623 Z M 27.8721 61.5078 C 23.7091 60.1788 20.6081 56.1928 20.6081 51.5858 C 20.6081 45.8278 25.3031 41.1338 31.0611 41.1338 C 32.3011 41.1338 33.5421 41.4008 34.6041 41.7538 C 34.6041 36.0848 39.2991 31.3898 45.0581 31.3898 C 50.7261 31.3898 55.4211 35.9958 55.5101 41.7538 C 56.4841 41.4008 57.4591 41.2228 58.5211 41.2228 C 64.2801 41.2228 68.9751 45.9178 68.9751 51.6758 C 68.9751 56.3698 65.7851 60.3558 61.5341 61.6848 C 62.8621 63.4558 63.6601 65.5818 63.6601 67.9748 C 63.6601 73.7318 58.9651 78.4268 53.2071 78.4268 C 49.6641 78.4268 46.5631 76.5668 44.7031 73.9088 C 42.7541 76.3898 39.7421 77.9848 36.3761 77.9848 C 30.7071 77.9848 26.0121 73.2898 26.0121 67.5308 C 26.0121 65.3178 26.7211 63.1918 27.8721 61.5078 Z M 27.8721 61.5078 " />
</svg>
