<?xml version="1.0" standalone="no"?>
<svg xmlns="http://www.w3.org/2000/svg" version="1.1">
<path stroke="black" stroke-width="1" fill="none" fill-rule="nonzero" transform="matrix(1 0 0 -1 0 501.97)" d="M 57.026 388 L 739.797 388 L 739.797 411.062 L 57.026 411.062 Z M 740.716 388 L 56.1076 388 C 55.0036 388 54.1076 387.105 54.1076 386 L 54.1076 384.275 C 54.1076 382.066 55.8986 380.275 58.1076 380.275 L 738.716 380.275 C 740.925 380.275 742.716 382.066 742.716 384.275 L 742.716 386 C 742.716 387.105 741.821 388 740.716 388 Z M 617.551 431.016 L 617.551 431.016 C 617.551 429.911 616.656 429.016 615.551 429.016 L 179.834 429.016 C 178.729 429.016 177.834 429.911 177.834 431.016 C 177.834 431.66 177.311 432.183 176.667 432.183 L 39.3248 432.183 L 39.3248 411.062 L 757.499 411.062 L 757.499 432.183 L 618.718 432.183 C 618.073 432.183 617.551 431.66 617.551 431.016 Z M 180 380.275 L 180 366.667 C 180 357.278 187.611 349.667 197 349.667 L 603 349.667 C 612.389 349.667 620 357.278 620 366.667 L 620 380.275 L 180 380.275 Z M 660.323 432.182 L 660.323 459 C 660.323 459 634.266 464 609.794 477 L 187.029 477 C 162.557 464 136.499 459 136.499 459 L 136.499 432.182 L 39.3245 432.182 L 39.3245 411.061 L 757.498 411.061 L 757.498 432.182 L 660.323 432.182 Z M 732.499 501.97 L 64.3249 501.97 C 50.5749 501.97 39.3249 490.72 39.3249 476.97 L 39.3249 336.158 C 39.3249 322.408 50.5749 311.158 64.3249 311.158 L 732.499 311.158 C 746.249 311.158 757.499 322.408 757.499 336.158 L 757.499 476.97 C 757.499 490.72 746.249 501.97 732.499 501.97 Z M 590.162 429.016 L 206.662 429.016 L 206.662 475 C 206.662 476.105 207.557 477 208.662 477 L 588.162 477 C 589.267 477 590.162 476.105 590.162 475 L 590.162 429.016 Z M 590.162 429.016 " />
</svg>
