<?xml version="1.0" standalone="no"?>
<svg xmlns="http://www.w3.org/2000/svg" version="1.1">
<path stroke="black" stroke-width="1" fill="none" fill-rule="nonzero" transform="matrix(1 0 0 -1 0 47.6103)" d="M 8.67529 28.436 C 8.67529 28.436 1.03564 30.918 1.03564 30.918 M 8.67383 25.0298 C 8.67383 25.0298 0 27.8481 0 27.8481 M 10.8154 35.9907 C 10.8154 35.9907 10.5801 32.0537 10.5801 32.0537 M 23.9604 40.0342 C 23.9604 40.0342 23.9604 47.6103 23.9604 47.6103 M 27.2002 40.0337 C 27.2002 40.0337 27.2002 47.6103 27.2002 47.6103 M 41.0889 0 C 41.0889 0 10.104 0 10.104 0 M 9.81738 32.7812 C 9.81738 32.7812 9.8125 36.3286 9.8125 36.3286 M 40.3457 35.9907 C 40.3457 35.9907 40.5801 32.0537 40.5801 32.0537 M 41.3428 32.7812 C 41.3428 32.7812 41.3486 36.3286 41.3486 36.3286 M 8.66406 1.44043 C 8.66406 1.44043 8.67725 33.1728 8.67725 33.1728 M 42.5137 25.0381 C 42.5137 25.0381 51.1611 27.8481 51.1611 27.8481 M 50.1592 30.9292 C 50.1592 30.9292 42.5107 28.4443 42.5107 28.4443 M 42.5078 33.1733 C 42.5078 33.1733 42.5293 1.44043 42.5293 1.44043 M 27.2002 45.9492 C 27.2002 45.9492 23.9604 45.9492 23.9604 45.9492 M 27.2002 47.6103 C 27.2002 47.6103 23.9604 47.6103 23.9604 47.6103 M 2.58105 30.416 C 2.58105 30.416 1.57959 27.3345 1.57959 27.3345 M 1.00098 30.9292 C 1.00098 30.9292 0 27.8481 0 27.8481 M 49.581 27.3345 C 49.581 27.3345 48.5801 30.416 48.5801 30.416 M 51.1611 27.8481 C 51.1611 27.8481 50.1592 30.9292 50.1592 30.9292 M 41.0889 0 C 41.8838 0 42.5293 0.64453 42.5293 1.43945 C 42.5293 1.44043 42.5293 1.44043 42.5293 1.44043 M 40.5547 32.0615 C 30.8398 35.3931 20.2925 35.3901 10.5801 32.0537 M 8.66406 1.44043 C 8.66357 0.64551 9.30811 0 10.1035 0 C 10.1035 0 10.1035 0 10.104 0 M 40.5811 32.0552 C 40.9228 31.98 41.2617 32.1968 41.3369 32.5391 C 41.3545 32.6186 41.3564 32.7007 41.3428 32.7812 M 9.81738 32.7812 C 9.75928 32.4351 9.99219 32.1074 10.3379 32.0493 C 10.4185 32.0356 10.5005 32.0376 10.5801 32.0552 M 10.8555 37.917 C 10.3267 38.0757 9.76904 37.7759 9.61035 37.2471 C 9.45117 36.7183 9.75098 36.1611 10.2798 36.0019 C 10.4541 35.9497 10.6392 35.9458 10.8154 35.9912 M 40.3203 35.9976 C 30.71 38.9741 20.4243 38.9717 10.8154 35.9912 M 9.81494 34.5801 C 9.15137 34.4375 8.67773 33.8516 8.67725 33.1728 M 42.5078 33.1733 C 42.5078 33.8589 42.0234 34.4492 41.3516 34.584 M 40.3447 35.9912 C 40.8799 35.854 41.4248 36.1768 41.5615 36.7119 C 41.6982 37.2466 41.376 37.791 40.8408 37.9282 C 40.665 37.9731 40.4795 37.9692 40.3057 37.917 M 40.3047 37.916 C 30.6963 40.7734 20.4639 40.7739 10.8555 37.917 M 42.5078 33.1733 C 42.5078 33.8589 42.0234 34.4492 41.3516 34.584 " />
</svg>
