<?xml version="1.0" standalone="no"?>
<svg xmlns="http://www.w3.org/2000/svg" version="1.1">
<path stroke="black" stroke-width="1" fill="none" fill-rule="nonzero" transform="matrix(1 0 0 -1 0 34.416)" d="M 1.36816 0.28809 C 1.36816 0.28809 60.4102 0.28809 60.4102 0.28809 M 61.5967 1.33203 C 61.5967 1.33203 61.5967 32.9272 61.5967 32.9272 M 60.5889 34.1279 C 60.5889 34.1279 1.40283 34.1279 1.40283 34.1279 M 0.39648 32.938 C 0.39648 32.938 0.39648 1.52441 0.39648 1.52441 M 1.6084 0.72656 C 1.6084 0.72656 1.62061 0.86426 1.62061 0.86426 M 1.62061 0.86426 C 1.62061 0.86426 1.6084 1.00195 1.6084 1.00195 M 1.6084 1.00195 C 1.6084 1.00195 1.57275 1.13477 1.57275 1.13477 M 1.57275 1.13477 C 1.57275 1.13477 1.51465 1.25977 1.51465 1.25977 M 1.51465 1.25977 C 1.51465 1.25977 1.43506 1.37305 1.43506 1.37305 M 1.43506 1.37305 C 1.43506 1.37305 1.33789 1.4707 1.33789 1.4707 M 1.33789 1.4707 C 1.33789 1.4707 1.22461 1.5498 1.22461 1.5498 M 1.22461 1.5498 C 1.22461 1.5498 1.09961 1.6084 1.09961 1.6084 M 1.09961 1.6084 C 1.09961 1.6084 0.96631 1.64355 0.96631 1.64355 M 0.96631 1.64355 C 0.96631 1.64355 0.82861 1.65625 0.82861 1.65625 M 0.82861 1.65625 C 0.82861 1.65625 0.69092 1.64355 0.69092 1.64355 M 0.69092 1.64355 C 0.69092 1.64355 0.55762 1.6084 0.55762 1.6084 M 0.55762 1.6084 C 0.55762 1.6084 0.43262 1.5498 0.43262 1.5498 M 0.43262 1.5498 C 0.43262 1.5498 0.31934 1.4707 0.31934 1.4707 M 0.31934 1.4707 C 0.31934 1.4707 0.22168 1.37305 0.22168 1.37305 M 0.22168 1.37305 C 0.22168 1.37305 0.14258 1.25977 0.14258 1.25977 M 0.14258 1.25977 C 0.14258 1.25977 0.08447 1.13477 0.08447 1.13477 M 0.08447 1.13477 C 0.08447 1.13477 0.04883 1.00195 0.04883 1.00195 M 0.04883 1.00195 C 0.04883 1.00195 0.03662 0.86426 0.03662 0.86426 M 0.03662 0.86426 C 0.03662 0.86426 0.04883 0.72656 0.04883 0.72656 M 0.04883 0.72656 C 0.04883 0.72656 0.08447 0.59277 0.08447 0.59277 M 0.08447 0.59277 C 0.08447 0.59277 0.14258 0.46777 0.14258 0.46777 M 0.14258 0.46777 C 0.14258 0.46777 0.22168 0.35449 0.22168 0.35449 M 0.22168 0.35449 C 0.22168 0.35449 0.31934 0.25781 0.31934 0.25781 M 0.31934 0.25781 C 0.31934 0.25781 0.43262 0.17773 0.43262 0.17773 M 0.43262 0.17773 C 0.43262 0.17773 0.55762 0.12012 0.55762 0.12012 M 0.55762 0.12012 C 0.55762 0.12012 0.69092 0.08398 0.69092 0.08398 M 0.69092 0.08398 C 0.69092 0.08398 0.82861 0.07227 0.82861 0.07227 M 0.82861 0.07227 C 0.82861 0.07227 0.96631 0.08398 0.96631 0.08398 M 0.96631 0.08398 C 0.96631 0.08398 1.09961 0.12012 1.09961 0.12012 M 1.09961 0.12012 C 1.09961 0.12012 1.22461 0.17773 1.22461 0.17773 M 1.22461 0.17773 C 1.22461 0.17773 1.33789 0.25781 1.33789 0.25781 M 1.33789 0.25781 C 1.33789 0.25781 1.43506 0.35449 1.43506 0.35449 M 1.43506 0.35449 C 1.43506 0.35449 1.51465 0.46777 1.51465 0.46777 M 1.51465 0.46777 C 1.51465 0.46777 1.57275 0.59277 1.57275 0.59277 M 1.57275 0.59277 C 1.57275 0.59277 1.6084 0.72656 1.6084 0.72656 M 1.57275 33.4863 C 1.57275 33.4863 1.58447 33.624 1.58447 33.624 M 1.58447 33.624 C 1.58447 33.624 1.57275 33.7617 1.57275 33.7617 M 1.57275 33.7617 C 1.57275 33.7617 1.53662 33.895 1.53662 33.895 M 1.53662 33.895 C 1.53662 33.895 1.47852 34.02 1.47852 34.02 M 1.47852 34.02 C 1.47852 34.02 1.39941 34.1333 1.39941 34.1333 M 1.39941 34.1333 C 1.39941 34.1333 1.30176 34.2305 1.30176 34.2305 M 1.30176 34.2305 C 1.30176 34.2305 1.18848 34.3101 1.18848 34.3101 M 1.18848 34.3101 C 1.18848 34.3101 1.06348 34.3682 1.06348 34.3682 M 1.06348 34.3682 C 1.06348 34.3682 0.93018 34.4038 0.93018 34.4038 M 0.93018 34.4038 C 0.93018 34.4038 0.79248 34.416 0.79248 34.416 M 0.79248 34.416 C 0.79248 34.416 0.65527 34.4038 0.65527 34.4038 M 0.65527 34.4038 C 0.65527 34.4038 0.52148 34.3682 0.52148 34.3682 M 0.52148 34.3682 C 0.52148 34.3682 0.39648 34.3101 0.39648 34.3101 M 0.39648 34.3101 C 0.39648 34.3101 0.28369 34.2305 0.28369 34.2305 M 0.28369 34.2305 C 0.28369 34.2305 0.18604 34.1333 0.18604 34.1333 M 0.18604 34.1333 C 0.18604 34.1333 0.10693 34.02 0.10693 34.02 M 0.10693 34.02 C 0.10693 34.02 0.04834 33.895 0.04834 33.895 M 0.04834 33.895 C 0.04834 33.895 0.0127 33.7617 0.0127 33.7617 M 0.0127 33.7617 C 0.0127 33.7617 0.00049 33.624 0.00049 33.624 M 0.00049 33.624 C 0.00049 33.624 0.0127 33.4863 0.0127 33.4863 M 0.0127 33.4863 C 0.0127 33.4863 0.04834 33.353 0.04834 33.353 M 0.04834 33.353 C 0.04834 33.353 0.10693 33.228 0.10693 33.228 M 0.10693 33.228 C 0.10693 33.228 0.18604 33.1147 0.18604 33.1147 M 0.18604 33.1147 C 0.18604 33.1147 0.28369 33.0171 0.28369 33.0171 M 0.28369 33.0171 C 0.28369 33.0171 0.39648 32.938 0.39648 32.938 M 0.39648 32.938 C 0.39648 32.938 0.52148 32.8799 0.52148 32.8799 M 0.52148 32.8799 C 0.52148 32.8799 0.65527 32.8442 0.65527 32.8442 M 0.65527 32.8442 C 0.65527 32.8442 0.79248 32.832 0.79248 32.832 M 0.79248 32.832 C 0.79248 32.832 0.93018 32.8442 0.93018 32.8442 M 0.93018 32.8442 C 0.93018 32.8442 1.06348 32.8799 1.06348 32.8799 M 1.06348 32.8799 C 1.06348 32.8799 1.18848 32.938 1.18848 32.938 M 1.18848 32.938 C 1.18848 32.938 1.30176 33.0171 1.30176 33.0171 M 1.30176 33.0171 C 1.30176 33.0171 1.39941 33.1147 1.39941 33.1147 M 1.39941 33.1147 C 1.39941 33.1147 1.47852 33.228 1.47852 33.228 M 1.47852 33.228 C 1.47852 33.228 1.53662 33.353 1.53662 33.353 M 1.53662 33.353 C 1.53662 33.353 1.57275 33.4863 1.57275 33.4863 M 61.8008 0.6543 C 61.8008 0.6543 61.8125 0.79199 61.8125 0.79199 M 61.8125 0.79199 C 61.8125 0.79199 61.8008 0.92969 61.8008 0.92969 M 61.8008 0.92969 C 61.8008 0.92969 61.7646 1.0625 61.7646 1.0625 M 61.7646 1.0625 C 61.7646 1.0625 61.706 1.18848 61.706 1.18848 M 61.706 1.18848 C 61.706 1.18848 61.6269 1.30078 61.6269 1.30078 M 61.6269 1.30078 C 61.6269 1.30078 61.5293 1.39844 61.5293 1.39844 M 61.5293 1.39844 C 61.5293 1.39844 61.417 1.47754 61.417 1.47754 M 61.417 1.47754 C 61.417 1.47754 61.291 1.53613 61.291 1.53613 M 61.291 1.53613 C 61.291 1.53613 61.1582 1.57227 61.1582 1.57227 M 61.1582 1.57227 C 61.1582 1.57227 61.0205 1.58398 61.0205 1.58398 M 61.0205 1.58398 C 61.0205 1.58398 60.8828 1.57227 60.8828 1.57227 M 60.8828 1.57227 C 60.8828 1.57227 60.75 1.53613 60.75 1.53613 M 60.75 1.53613 C 60.75 1.53613 60.625 1.47754 60.625 1.47754 M 60.625 1.47754 C 60.625 1.47754 60.5117 1.39844 60.5117 1.39844 M 60.5117 1.39844 C 60.5117 1.39844 60.4141 1.30078 60.4141 1.30078 M 60.4141 1.30078 C 60.4141 1.30078 60.335 1.18848 60.335 1.18848 M 60.335 1.18848 C 60.335 1.18848 60.2764 1.0625 60.2764 1.0625 M 60.2764 1.0625 C 60.2764 1.0625 60.2402 0.92969 60.2402 0.92969 M 60.2402 0.92969 C 60.2402 0.92969 60.2285 0.79199 60.2285 0.79199 M 60.2285 0.79199 C 60.2285 0.79199 60.2402 0.6543 60.2402 0.6543 M 60.2402 0.6543 C 60.2402 0.6543 60.2764 0.52148 60.2764 0.52148 M 60.2764 0.52148 C 60.2764 0.52148 60.335 0.39648 60.335 0.39648 M 60.335 0.39648 C 60.335 0.39648 60.4141 0.2832 60.4141 0.2832 M 60.4141 0.2832 C 60.4141 0.2832 60.5117 0.18555 60.5117 0.18555 M 60.5117 0.18555 C 60.5117 0.18555 60.625 0.10645 60.625 0.10645 M 60.625 0.10645 C 60.625 0.10645 60.75 0.04785 60.75 0.04785 M 60.75 0.04785 C 60.75 0.04785 60.8828 0.01172 60.8828 0.01172 M 60.8828 0.01172 C 60.8828 0.01172 61.0205 0 61.0205 0 M 61.0205 0 C 61.0205 0 61.1582 0.01172 61.1582 0.01172 M 61.1582 0.01172 C 61.1582 0.01172 61.291 0.04785 61.291 0.04785 M 61.291 0.04785 C 61.291 0.04785 61.417 0.10645 61.417 0.10645 M 61.417 0.10645 C 61.417 0.10645 61.5293 0.18555 61.5293 0.18555 M 61.5293 0.18555 C 61.5293 0.18555 61.6269 0.2832 61.6269 0.2832 M 61.6269 0.2832 C 61.6269 0.2832 61.706 0.39648 61.706 0.39648 M 61.706 0.39648 C 61.706 0.39648 61.7646 0.52148 61.7646 0.52148 M 61.7646 0.52148 C 61.7646 0.52148 61.8008 0.6543 61.8008 0.6543 M 61.9443 33.4507 C 61.9443 33.4507 61.957 33.5879 61.957 33.5879 M 61.957 33.5879 C 61.957 33.5879 61.9443 33.7256 61.9443 33.7256 M 61.9443 33.7256 C 61.9443 33.7256 61.9092 33.8589 61.9092 33.8589 M 61.9092 33.8589 C 61.9092 33.8589 61.8506 33.9839 61.8506 33.9839 M 61.8506 33.9839 C 61.8506 33.9839 61.7715 34.0972 61.7715 34.0972 M 61.7715 34.0972 C 61.7715 34.0972 61.6738 34.1948 61.6738 34.1948 M 61.6738 34.1948 C 61.6738 34.1948 61.5605 34.2739 61.5605 34.2739 M 61.5605 34.2739 C 61.5605 34.2739 61.4355 34.332 61.4355 34.332 M 61.4355 34.332 C 61.4355 34.332 61.3018 34.3682 61.3018 34.3682 M 61.3018 34.3682 C 61.3018 34.3682 61.165 34.3799 61.165 34.3799 M 61.165 34.3799 C 61.165 34.3799 61.0273 34.3682 61.0273 34.3682 M 61.0273 34.3682 C 61.0273 34.3682 60.8935 34.332 60.8935 34.332 M 60.8935 34.332 C 60.8935 34.332 60.7685 34.2739 60.7685 34.2739 M 60.7685 34.2739 C 60.7685 34.2739 60.6553 34.1948 60.6553 34.1948 M 60.6553 34.1948 C 60.6553 34.1948 60.5576 34.0972 60.5576 34.0972 M 60.5576 34.0972 C 60.5576 34.0972 60.4785 33.9839 60.4785 33.9839 M 60.4785 33.9839 C 60.4785 33.9839 60.4199 33.8589 60.4199 33.8589 M 60.4199 33.8589 C 60.4199 33.8589 60.3848 33.7256 60.3848 33.7256 M 60.3848 33.7256 C 60.3848 33.7256 60.373 33.5879 60.373 33.5879 M 60.373 33.5879 C 60.373 33.5879 60.3848 33.4507 60.3848 33.4507 M 60.3848 33.4507 C 60.3848 33.4507 60.4199 33.3169 60.4199 33.3169 M 60.4199 33.3169 C 60.4199 33.3169 60.4785 33.1919 60.4785 33.1919 M 60.4785 33.1919 C 60.4785 33.1919 60.5576 33.0791 60.5576 33.0791 M 60.5576 33.0791 C 60.5576 33.0791 60.6553 32.9814 60.6553 32.9814 M 60.6553 32.9814 C 60.6553 32.9814 60.7685 32.9023 60.7685 32.9023 M 60.7685 32.9023 C 60.7685 32.9023 60.8935 32.8438 60.8935 32.8438 M 60.8935 32.8438 C 60.8935 32.8438 61.0273 32.8081 61.0273 32.8081 M 61.0273 32.8081 C 61.0273 32.8081 61.165 32.7959 61.165 32.7959 M 61.165 32.7959 C 61.165 32.7959 61.3018 32.8081 61.3018 32.8081 M 61.3018 32.8081 C 61.3018 32.8081 61.4355 32.8438 61.4355 32.8438 M 61.4355 32.8438 C 61.4355 32.8438 61.5605 32.9023 61.5605 32.9023 M 61.5605 32.9023 C 61.5605 32.9023 61.6738 32.9814 61.6738 32.9814 M 61.6738 32.9814 C 61.6738 32.9814 61.7715 33.0791 61.7715 33.0791 M 61.7715 33.0791 C 61.7715 33.0791 61.8506 33.1919 61.8506 33.1919 M 61.8506 33.1919 C 61.8506 33.1919 61.9092 33.3169 61.9092 33.3169 M 61.9092 33.3169 C 61.9092 33.3169 61.9443 33.4507 61.9443 33.4507 " />
</svg>
