<?xml version="1.0" standalone="no"?>
<svg xmlns="http://www.w3.org/2000/svg" version="1.1">
<path stroke="black" stroke-width="1" fill="none" fill-rule="nonzero" transform="matrix(1 0 0 -1 0 2110.72)" d="M 644.055 1809.72 L 715.409 1809.72 L 750.265 1809.72 L 1275.25 1809.72 L 1799.74 1809.72 L 1834.97 1809.72 L 1905.95 1809.72 C 1938.69 1809.72 1965.24 1832.46 1965.24 1860.51 L 1965.24 2059.93 C 1965.24 2087.98 1938.69 2110.72 1905.95 2110.72 L 644.055 2110.72 C 611.309 2110.72 584.764 2087.98 584.764 2059.93 L 584.764 1860.51 C 584.764 1832.46 611.309 1809.72 644.055 1809.72 Z M 1700.4 931.501 L 1699.08 931.501 C 1681.81 714.794 1497.2 544.224 1272.01 544.224 C 1046.82 544.224 862.215 714.794 844.947 931.501 L 843.622 931.501 L 750.265 1809.72 L 715.409 1809.72 L 815.001 911.719 L 816.414 911.719 C 834.836 690.131 1031.77 515.719 1272 515.719 C 1512.23 515.719 1709.17 690.131 1727.59 911.719 L 1729 911.719 L 1834.97 1809.72 L 1799.74 1809.72 L 1700.4 931.501 Z M 844.947 931.501 C 862.215 714.794 1046.82 544.224 1272.01 544.224 C 1497.2 544.224 1681.81 714.794 1699.08 931.501 L 1700.4 931.501 L 1799.74 1809.72 L 1275.25 1809.72 L 750.265 1809.72 L 843.622 931.501 L 844.947 931.501 Z M 844.947 931.501 " />
</svg>
