<?xml version="1.0" standalone="no"?>
<svg xmlns="http://www.w3.org/2000/svg" version="1.1">
<path stroke="black" stroke-width="1" fill="none" fill-rule="nonzero" transform="matrix(1 0 0 -1 0 281.947)" d="M 2.4 38.7339 L 512.636 38.7339 M 512.636 38.734 L 512.636 1.6001 M 512.636 1.6 L 2.4 1.6 M 2.4 1.6001 L 2.4 38.734 M 14.3053 38.734 L 14.3053 1.6001 M 500.731 38.734 L 500.731 1.6001 M 500.731 38.734 L 500.731 281.947 M 14.3053 38.734 L 14.3053 281.947 M 500.731 281.947 L 476.892 280.776 L 453.282 277.273 L 430.13 271.474 L 407.657 263.433 L 386.081 253.229 L 365.609 240.958 L 346.438 226.74 L 328.753 210.712 L 312.725 193.026 L 298.507 173.856 L 286.236 153.384 L 276.032 131.808 L 267.991 109.335 L 262.191 86.1824 L 258.689 62.573 M 257.518 38.7339 L 256.347 62.5728 L 252.844 86.1823 L 247.045 109.335 L 239.005 131.807 L 228.8 153.384 L 216.529 173.856 L 202.311 193.026 L 186.283 210.711 L 168.598 226.74 L 149.427 240.958 L 128.955 253.229 L 107.379 263.433 L 84.9062 271.474 L 61.7538 277.273 L 38.1443 280.776 M 38.1181 280.753 L 14.3053 281.947 M 258.707 62.5782 L 257.518 38.8205 " />
</svg>
