<?xml version="1.0" standalone="no"?>
<svg xmlns="http://www.w3.org/2000/svg" version="1.1">
<path stroke="black" stroke-width="1" fill="none" fill-rule="nonzero" transform="matrix(1 0 0 -1 0 765.353)" d="M 611.883 459.471 L 306 459.471 M 611.883 115.352 L 306 115.352 M 611.883 287.412 L 306 287.412 M 306 230.059 L 306 287.413 M 611.883 230.059 L 306 230.059 M 611.883 287.412 L 611.883 230.058 M 306 0.6475 L 611.883 0.6475 M 0.1177 344.765 L 306 344.765 M 306 402.118 L 306 344.765 M 0.1177 402.118 L 306 402.118 M 0.1177 344.765 L 0.1177 402.118 M 306 172.706 L 306 115.352 M 611.883 58 L 611.883 0.646996 M 0.1177 115.352 L 0.1177 172.706 M 0.1177 230.059 L 306 230.059 M 611.883 402.118 L 611.883 344.765 M 0.1177 58 L 306 58 M 611.883 402.118 L 306 402.118 M 0.1177 765.353 L 0.1177 459.471 M 0.1177 115.352 L 306 115.352 M 306 402.118 L 306 459.471 M 611.883 344.765 L 306 344.765 M 306 287.412 L 306 344.765 M 611.883 344.765 L 611.883 287.411 M 611.883 230.059 L 611.883 172.706 M 611.883 172.706 L 306 172.706 M 0.1177 765.353 L 611.883 765.353 M 611.883 765.353 L 611.883 459.471 M 306 115.352 L 306 57.9985 M 0.1177 58 L 0.1177 115.353 M 611.883 459.471 L 611.883 402.118 M 611.883 172.706 L 611.883 115.352 M 306 459.471 L 0.117981 459.471 M 0.1177 402.118 L 0.1177 459.471 M 0.1177 172.706 L 0.1177 230.06 M 0.1177 230.059 L 0.1177 287.413 M 0.1177 287.412 L 0.1177 344.765 M 306 172.706 L 306 230.06 M 0.1177 172.706 L 306 172.706 M 0.1177 287.412 L 306 287.412 M 611.883 58 L 306 58 M 306 0.6475 L 306 58.0015 M 611.883 58 L 611.883 115.353 M 150.098 142.922 L 150.098 640.897 M 150.098 640.896 L 463.582 640.896 M 463.582 640.896 L 463.582 87.4235 M 463.582 87.4238 L 473.579 97.4208 M 463.582 87.4238 L 453.609 97.3968 " />
</svg>
