<?xml version="1.0" standalone="no"?>
<svg xmlns="http://www.w3.org/2000/svg" version="1.1">
<path stroke="black" stroke-width="1" fill="none" fill-rule="nonzero" transform="matrix(1 0 0 -1 0 512.319)" d="M 492.137 368.098 L 482.281 385.851 M 481.032 388.096 L 479.784 390.344 M 509.883 320.537 L 320.93 271.963 M 502.202 344.752 L 492.137 368.098 M 509.883 320.537 L 502.202 344.752 M 258.834 192.668 L 258.28 -0.233994 M 207.274 4.9229 L 232.648 1.0949 M 81.3154 69.4688 L 100.851 53.0058 M 100.851 53.0059 L 117.677 41.4579 M 119.806 39.9971 L 121.937 38.5351 M 187.431 9.9424 L 187.374 9.7484 M 139.742 28.5098 L 163.088 17.9618 M 163.087 17.9619 L 182.468 11.4069 M 184.919 10.5781 L 187.374 9.7481 M 479.609 390.238 L 479.784 390.344 M 307.33 507.633 L 307.368 507.832 M 286.568 198.058 L 263.52 192.132 M 305.896 211.813 L 286.568 198.057 M 434.047 444.803 L 434.186 444.953 M 468.366 407.166 L 452.222 426.896 M 452.223 426.896 L 437.828 441.304 M 436.008 443.128 L 434.186 444.953 M 124.662 475.216 L 107.692 463.874 M 105.545 462.438 L 103.397 461.002 M 103.52 460.841 L 103.396 461.003 M 397.56 472.652 L 379.727 482.615 M 377.471 483.875 L 375.213 485.137 M 375.12 484.956 L 375.213 485.137 M 215.512 508.695 L 190.452 503.202 M 147.244 487.279 L 124.661 475.216 M 190.453 503.202 L 170.992 496.885 M 168.53 496.086 L 166.066 495.286 M 418.547 458.042 L 397.56 472.652 M 318.891 231.545 L 305.897 211.814 M 323.801 254.585 L 318.891 231.545 M 356.548 493.496 L 332.319 501.869 M 332.317 501.869 L 312.407 506.628 M 309.889 507.229 L 307.368 507.832 M 52.772 410.949 L 52.608 411.072 M 87.5093 448.209 L 69.1273 430.496 M 69.1274 430.496 L 55.9454 414.996 M 54.2773 413.034 L 52.6083 411.072 M 17.7705 349.231 L 17.5795 349.305 M 40.8687 394.468 L 28.0917 372.457 M 28.0918 372.457 L 19.7028 353.981 M 18.6416 351.645 L 17.5796 349.306 M 1.1875 280.399 L 0.9835 280.418 M 10.8838 330.159 L 4.6868 305.531 M 4.6865 305.531 L 1.7315 285.491 M 1.3579 282.956 L 0.9839 280.418 M 4.29 209.707 L 4.089 209.67 M -0.1567 260.191 L 0.6993 234.826 M 0.6992 234.826 L 3.4042 214.752 M 3.7461 212.212 L 4.0891 209.67 M 26.8403 142.554 L 26.6563 142.463 M 8.5903 189.906 L 16.4343 165.742 M 16.4341 165.742 L 24.5921 147.166 M 25.624 144.815 L 26.657 142.462 M 67.1167 84.0654 L 66.9657 83.9284 M 36.4565 124.672 L 50.6895 103.553 M 50.6895 103.553 L 63.6775 87.8927 M 65.3208 85.9121 L 66.9658 83.9291 M 122.045 38.707 L 121.937 38.535 M 235.851 511.101 L 235.832 511.303 M 287.102 510.821 L 261.479 512.319 M 261.478 512.319 L 241.012 511.508 M 238.423 511.406 L 235.832 511.303 M 166.139 495.097 L 166.066 495.286 M 117.565 41.2881 L 117.677 41.4581 M 117.677 41.458 L 224.107 203.046 M 67.1167 84.0654 L 81.3157 69.4684 M 117.565 41.2881 L 119.805 39.9971 M 182.408 11.2129 L 182.469 11.4069 M 182.468 11.4072 L 239.864 194.839 M 204.714 291.011 L 208.86 295.306 M 208.859 295.306 L 221.154 308.045 M 195.606 269.255 L 200.16 280.133 M 200.16 280.133 L 204.714 291.011 M 195.062 245.716 L 195.469 263.32 M 195.469 263.32 L 195.606 269.256 M 221.155 308.045 L 237.275 315.532 M 237.274 315.532 L 242.71 318.057 M 239.864 194.839 L 224.107 203.046 M 224.107 203.046 L 218.794 205.814 M 263.521 192.132 L 258.833 192.668 M 258.834 192.668 L 239.864 194.839 M 242.71 318.057 L 254.588 318.875 M 254.588 318.874 L 266.466 319.693 M 307.89 298.119 L 313.925 287.971 M 313.925 287.971 L 319.961 277.823 M 289.218 312.734 L 303.182 301.804 M 303.182 301.805 L 307.89 298.119 M 266.467 319.693 L 272.203 317.938 M 272.203 317.939 L 289.218 312.734 M 482.456 385.953 L 482.28 385.85 M 482.28 385.851 L 313.926 287.972 M 482.456 385.953 L 481.032 388.096 M 218.793 205.813 L 210.975 214.692 M 210.975 214.692 L 203.156 223.57 M 203.156 223.57 L 201.115 229.155 M 201.115 229.155 L 195.062 245.717 M 170.922 497.075 L 170.991 496.885 M 170.992 496.885 L 237.275 315.532 M 170.922 497.075 L 168.529 496.086 M 437.971 441.451 L 437.828 441.305 M 437.828 441.305 L 303.182 301.805 M 434.047 444.803 L 418.547 458.042 M 187.431 9.9424 L 207.275 4.9224 M 319.961 277.823 L 320.93 271.963 M 320.93 271.962 L 323.801 254.585 M 379.821 482.795 L 377.47 483.876 M 379.821 482.795 L 379.726 482.615 M 379.727 482.615 L 289.218 312.734 M 107.572 464.039 L 107.692 463.874 M 107.692 463.873 L 221.155 308.044 M 107.572 464.039 L 105.545 462.439 M 55.7847 415.121 L 55.9457 414.996 M 55.9453 414.996 L 208.859 295.307 M 52.772 410.949 L 40.869 394.468 M 19.5137 354.059 L 19.7027 353.981 M 19.7026 353.981 L 200.16 280.133 M 17.7705 349.231 L 10.8835 330.159 M 1.5278 285.515 L 1.7318 285.492 M 1.7314 285.491 L 195.469 263.32 M 1.1875 280.399 L -0.1565 260.191 M 24.4063 147.08 L 24.5923 147.166 M 24.5918 147.166 L 201.115 229.155 M 26.8403 142.554 L 36.4563 124.672 M 63.5229 87.7598 L 63.6769 87.8928 M 63.6772 87.8926 L 210.975 214.693 M 312.449 506.826 L 312.407 506.628 M 312.407 506.628 L 272.203 317.939 M 307.33 507.633 L 287.101 510.821 M 240.998 511.71 L 241.012 511.508 M 241.013 511.508 L 254.589 318.874 M 235.851 511.101 L 215.513 508.695 M 3.2017 214.72 L 3.4047 214.752 M 3.4043 214.752 L 195.062 245.716 M 4.29 209.707 L 8.59 189.906 M 63.5229 87.7598 L 65.3209 85.9118 M 65.3208 85.9121 L 67.1168 84.0651 M 119.806 39.9971 L 122.045 38.7071 M 122.045 38.707 L 139.742 28.51 M 481.032 388.096 L 479.609 390.238 M 479.609 390.238 L 468.366 407.166 M 168.53 496.086 L 166.139 495.097 M 166.139 495.097 L 147.244 487.28 M 437.971 441.451 L 436.008 443.128 M 436.008 443.128 L 434.047 444.803 M 182.408 11.2129 L 184.92 10.5779 M 184.919 10.5781 L 187.43 9.9421 M 377.471 483.875 L 375.12 484.956 M 375.12 484.956 L 356.548 493.496 M 105.545 462.438 L 103.52 460.84 M 103.52 460.841 L 87.5095 448.209 M 55.7847 415.121 L 54.2777 413.034 M 54.2773 413.034 L 52.7723 410.949 M 19.5137 354.059 L 18.6417 351.644 M 18.6416 351.645 L 17.7706 349.23 M 1.5278 285.515 L 1.3578 282.956 M 1.3579 282.956 L 1.1879 280.399 M 24.4063 147.08 L 25.6243 144.815 M 25.624 144.815 L 26.84 142.553 M 312.449 506.826 L 309.888 507.229 M 309.889 507.229 L 307.33 507.633 M 240.998 511.71 L 238.423 511.405 M 238.423 511.406 L 235.85 511.101 M 3.2017 214.72 L 3.7457 212.212 M 3.7461 212.212 L 4.2901 209.707 M 226 79.5 L 219 71.5 L 241.5 77 L 223 93.5 L 226 79.5 C -107 236 243.091 620.392 424 326 M 232.648 1.0947 L 258.28 -0.2343 " />
</svg>
